<?xml version="1.0" encoding="UTF-8"?>
<!DOCTYPE svg PUBLIC "-//W3C//DTD SVG 1.1//EN" "http://www.w3.org/Graphics/SVG/1.1/DTD/svg11.dtd">
<!-- Creator: CorelDRAW 2019 (64-Bit) -->
<svg xmlns="http://www.w3.org/2000/svg" xml:space="preserve" width="4.1112in" height="9.40239in" version="1.1" style="shape-rendering:geometricPrecision; text-rendering:geometricPrecision; image-rendering:optimizeQuality; fill-rule:evenodd; clip-rule:evenodd"
viewBox="0 0 4111.2 9402.39"
 xmlns:xlink="http://www.w3.org/1999/xlink">
 <defs>
  <style type="text/css">
   <![CDATA[
    .fil0 {fill:#EBA948;fill-rule:nonzero}
    .fil1 {fill:white;fill-rule:nonzero}
   ]]>
  </style>
 </defs>
 <g id="Layer_x0020_1">
  <metadata id="CorelCorpID_0Corel-Layer"/>
  <path class="fil0" d="M2143.52 1114.12l0.14 0.02 0.27 0.06c0.52,0.11 1.04,0.24 1.55,0.39l0.05 0.02 0.12 0.04 0.27 0.09 0.12 0.04 0.27 0.1 0.11 0.04 0.27 0.1 0.11 0.04 0.27 0.11 0.11 0.05 0.37 0.17 0.26 0.12 0.1 0.05c5.53,2.71 9.34,8.4 9.34,14.97l0 387.32c0,9.2 -7.46,16.67 -16.67,16.67 -1.29,0 -2.54,-0.15 -3.75,-0.42 -0.88,0.15 -1.79,0.22 -2.71,0.22 -134.43,0 -256.14,54.49 -344.22,142.58 -88.09,88.09 -142.58,209.8 -142.58,344.22 0,134.43 54.49,256.14 142.58,344.22 88.09,88.09 209.8,142.58 344.22,142.58 143.62,0 273.67,58.22 367.79,152.35 94.13,94.13 152.35,224.16 152.35,367.79 0,143.62 -58.22,273.67 -152.35,367.79 -87.52,87.52 -206.11,144 -337.78,151.49 -1.22,0.28 -2.48,0.43 -3.78,0.43 -1.93,0 -3.85,0.01 -5.78,0.04 -4.57,0.18 -9.16,0.3 -13.75,0.35 -126.66,5 -240.89,58.39 -324.69,142.19 -88.09,88.09 -142.58,209.8 -142.58,344.22 0,134.43 54.49,256.14 142.58,344.22 88.09,88.09 209.8,142.58 344.22,142.58 0.39,0 0.78,0.01 1.16,0.04 141.13,1.67 268.76,59.56 361.5,152.31 94.13,94.13 152.35,224.17 152.35,367.79 0,143.63 -58.22,273.67 -152.35,367.79 -90.47,90.47 -214.13,147.77 -351.13,152.08l0 0.27 0 370.74c130.62,2.28 248.66,56.15 334.61,142.1 87.85,87.84 142.18,209.2 142.18,343.24 0,134.04 -54.33,255.4 -142.18,343.24 -87.84,87.85 -209.2,142.18 -343.24,142.18 -7.61,0 -15.18,-0.18 -22.71,-0.52 -0.4,0.03 -0.8,0.04 -1.21,0.04 -134.43,0 -256.14,54.49 -344.22,142.58 -88.09,88.09 -142.58,209.8 -142.58,344.22 0,134.43 54.49,256.14 142.58,344.22 87.42,87.42 207.96,141.74 341.19,142.56 1.2,-0.27 2.44,-0.42 3.73,-0.42 9.2,0 16.67,7.46 16.67,16.67l0 387.32c0,6.57 -3.81,12.26 -9.34,14.97l-0.1 0.05 -0.26 0.12 -0.37 0.17 -0.11 0.05 -0.27 0.11 -0.11 0.04 -0.27 0.1 -0.11 0.04 -0.27 0.1 -0.12 0.04 -0.27 0.09 -0.12 0.04 -0.05 0.02c-0.5,0.16 -1.02,0.29 -1.55,0.39l-0.27 0.06 -0.14 0.02c-1.04,0.19 -2.11,0.28 -3.21,0.26l-7.78 -0c-124.84,0 -237.87,50.6 -319.67,132.41 -81.81,81.8 -132.41,194.83 -132.41,319.67 0,124.84 50.6,237.87 132.41,319.67 81.8,81.81 194.83,132.41 319.67,132.41 124.84,0 237.87,-50.6 319.67,-132.41 71.28,-71.28 118.87,-166.28 129.93,-272.13 -29.05,-8.31 -50.31,-35.06 -50.31,-66.77 0,-38.35 31.09,-69.44 69.44,-69.44 38.35,0 69.44,31.09 69.44,69.44 0,33.47 -23.68,61.41 -55.19,67.98 -11.43,114.58 -62.7,217.43 -139.76,294.49 -87.84,87.85 -209.2,142.18 -343.24,142.18 -134.04,0 -255.4,-54.33 -343.24,-142.18 -87.85,-87.84 -142.18,-209.2 -142.18,-343.24 0,-134.04 54.33,-255.4 142.18,-343.24 85.95,-85.95 204,-139.82 334.61,-142.1l0 -353.88c-137.28,-4.14 -261.19,-61.48 -351.81,-152.1 -94.13,-94.13 -152.35,-224.16 -152.35,-367.79 0,-143.62 58.22,-273.67 152.35,-367.79 93.95,-93.95 223.68,-152.13 367,-152.35l0 -0.19c8.19,0.44 16.42,0.67 24.71,0.67 124.84,0 237.87,-50.6 319.67,-132.41 81.81,-81.8 132.41,-194.83 132.41,-319.67 0,-124.84 -50.6,-237.87 -132.41,-319.67 -81.81,-81.81 -194.83,-132.41 -319.67,-132.41l-7.78 0c-1.09,0.02 -2.17,-0.08 -3.21,-0.26l-0.14 -0.02 -0.27 -0.06c-0.52,-0.11 -1.04,-0.24 -1.55,-0.39l-0.05 -0.02 -0.12 -0.04 -0.27 -0.09 -0.12 -0.04 -0.27 -0.1 -0.11 -0.04 -0.27 -0.1 -0.11 -0.04 -0.27 -0.11 -0.11 -0.05 -0.37 -0.17 -0.26 -0.12 -0.1 -0.05c-5.53,-2.71 -9.34,-8.4 -9.34,-14.97l0 -273.07 0 -114.25c0,-3.04 0.81,-5.89 2.23,-8.33 -1.42,-2.45 -2.23,-5.3 -2.23,-8.33 0,-9.2 7.46,-16.67 16.67,-16.67 134.43,0 256.14,-54.49 344.22,-142.58 88.09,-88.09 142.58,-209.8 142.58,-344.22 0,-134.43 -54.49,-256.14 -142.58,-344.22 -88.09,-88.09 -209.8,-142.58 -344.22,-142.58 -0.39,0 -0.78,-0.01 -1.16,-0.04 -141.13,-1.67 -268.75,-59.56 -361.5,-152.31 -94.13,-94.13 -152.35,-224.16 -152.35,-367.79 0,-143.62 58.22,-273.67 152.35,-367.79 87.53,-87.53 206.11,-144 337.79,-151.49 1.21,-0.28 2.48,-0.43 3.78,-0.43 1.93,0 3.86,-0.01 5.78,-0.04 4.57,-0.18 9.15,-0.3 13.75,-0.35 126.66,-5 240.89,-58.39 324.69,-142.19 88.09,-88.09 142.58,-209.8 142.58,-344.22 0,-134.43 -54.49,-256.14 -142.58,-344.22 -88.09,-88.09 -209.8,-142.58 -344.22,-142.58 -143.63,0 -273.67,-58.22 -367.79,-152.35 -94.13,-94.13 -152.35,-224.17 -152.35,-367.79 0,-143.63 58.22,-273.67 152.35,-367.79 91.89,-91.89 218,-149.55 357.58,-152.24l0 -353.98c-130.62,-2.28 -248.66,-56.15 -334.61,-142.1 -87.85,-87.84 -142.18,-209.2 -142.18,-343.24 0,-134.04 54.33,-255.4 142.18,-343.24 87.84,-87.85 209.2,-142.18 343.24,-142.18 134.04,0 255.4,54.33 343.24,142.18 73.23,73.23 123.17,169.75 137.76,277.5 32.51,5.79 57.19,34.2 57.19,68.37 0,38.35 -31.09,69.44 -69.44,69.44 -38.35,0 -69.44,-31.09 -69.44,-69.44 0,-31 20.31,-57.25 48.35,-66.18 -13.98,-99.41 -60.3,-188.45 -127.98,-256.13 -81.8,-81.81 -194.83,-132.41 -319.67,-132.41 -124.84,0 -237.87,50.6 -319.67,132.41 -81.81,81.8 -132.41,194.83 -132.41,319.67 0,124.84 50.6,237.87 132.41,319.67 81.81,81.81 194.83,132.41 319.67,132.41l7.78 -0c1.09,-0.02 2.17,0.08 3.21,0.26z"/>
  <g id="_1404944540784">
   <path class="fil0" d="M2061.98 645.59l0 -69c0,-9.5 3.38,-17.62 10.13,-24.37 6.75,-6.75 14.87,-10.13 24.37,-10.13l102.25 0c4.67,0 7.29,-0.29 7.88,-0.87 0.58,-0.58 0.87,-3.21 0.87,-7.87l0 -26.25c0,-4.67 -0.29,-7.29 -0.87,-7.88 -0.59,-0.58 -3.21,-0.87 -7.88,-0.87l-95.25 0c-4.67,0 -7.29,0.29 -7.87,0.87 -0.58,0.59 -0.87,3.21 -0.87,7.88l0 6.5 -32.75 0 0 -13.5c0,-9.67 3.38,-17.83 10.13,-24.5 6.75,-6.67 14.87,-10 24.37,-10l109.25 0c9.5,0 17.63,3.33 24.38,10 6.75,6.67 10.12,14.83 10.12,24.5l0 40.5c0,9.5 -3.37,17.63 -10.12,24.38 -6.75,6.75 -14.88,10.12 -24.38,10.12l-102.25 0c-4.67,0 -7.29,0.29 -7.87,0.88 -0.58,0.58 -0.87,3.2 -0.87,7.87l0 20.25c0,4.67 0.29,7.29 0.87,7.87 0.58,0.59 3.21,0.88 7.87,0.88l136.75 0 0 32.75 -178.25 0z"/>
   <path class="fil1" d="M2038.72 698.61l0 96.83c0,13.22 -3.66,23.5 -10.98,30.82 -7.32,7.33 -17.47,10.99 -30.43,10.99 -14,0 -25.08,-4.02 -33.25,-12.06 -8.17,-8.04 -12.25,-19.51 -12.25,-34.42l27.03 0c0,7 1.46,12.38 4.37,16.14 2.92,3.76 7.23,5.64 12.93,5.64 5.19,0 9.01,-1.52 11.47,-4.57 2.46,-3.05 3.7,-7.23 3.7,-12.54l0 -96.83 27.41 0z"/>
   <path id="1" class="fil1" d="M2165.69 728.17l0 107.72 -27.41 0 0 -21.78c-2.85,7.26 -7.55,12.93 -14.1,17.01 -6.55,4.08 -14.09,6.13 -22.65,6.13 -12.44,0 -22.36,-4.08 -29.75,-12.25 -7.39,-8.17 -11.08,-19.57 -11.08,-34.22l0 -62.61 27.22 0 0 59.5c0,8.56 2.2,15.2 6.61,19.93 4.41,4.73 10.37,7.1 17.89,7.1 7.91,0 14.19,-2.53 18.86,-7.58 4.67,-5.06 7,-12.31 7,-21.78l0 -57.17 27.41 0z"/>
   <path id="2" class="fil1" d="M2254.74 726.61c12.44,0 22.36,4.08 29.75,12.25 7.39,8.17 11.08,19.64 11.08,34.42l0 62.61 -27.22 0 0 -59.5c0,-8.56 -2.2,-15.2 -6.61,-19.93 -4.41,-4.73 -10.44,-7.1 -18.08,-7.1 -7.78,0 -14,2.53 -18.67,7.58 -4.67,5.06 -7,12.31 -7,21.78l0 57.17 -27.42 0 0 -107.72 27.42 0 0 21.58c2.85,-7.26 7.55,-12.93 14.09,-17.01 6.55,-4.08 14.1,-6.13 22.65,-6.13z"/>
   <path id="3" class="fil1" d="M2316.58 697.25c0,-4.41 1.56,-8 4.67,-10.79 3.11,-2.79 7.19,-4.18 12.25,-4.18 5.06,0 9.14,1.39 12.25,4.18 3.11,2.79 4.67,6.39 4.67,10.79 0,4.28 -1.56,7.81 -4.67,10.6 -3.11,2.79 -7.2,4.18 -12.25,4.18 -5.06,0 -9.14,-1.39 -12.25,-4.18 -3.11,-2.79 -4.67,-6.32 -4.67,-10.6zm30.53 30.92l0 107.72 -27.42 0 0 -107.72 27.42 0z"/>
  </g>
  <path class="fil0" d="M2401.3 1267.85c-8.62,0 -15.95,-3.02 -21.98,-9.05 -6.04,-6.04 -9.06,-13.37 -9.06,-21.99l0 -93.11c0,-8.62 3.02,-15.95 9.06,-21.98 6.04,-6.04 13.36,-9.06 21.98,-9.06l93.11 0c8.48,0 15.77,3.02 21.88,9.06 6.11,6.04 9.16,13.36 9.16,21.98l0 93.11c0,8.62 -3.06,15.95 -9.16,21.99 -6.11,6.04 -13.4,9.05 -21.88,9.05l-93.11 0zm7.11 -31.04l78.46 0c4.31,0 6.61,-0.14 6.9,-0.43 0.29,-0.29 0.43,-2.59 0.43,-6.9l0 -78.46c0,-4.31 -0.14,-6.61 -0.43,-6.9 -0.29,-0.29 -2.59,-0.43 -6.9,-0.43l-78.46 0c-4.31,0 -6.57,0.15 -6.79,0.43 -0.22,0.29 -0.32,2.59 -0.32,6.9l0 78.46c0,4.31 0.11,6.61 0.32,6.9 0.22,0.29 2.48,0.43 6.79,0.43z"/>
  <path id="1" class="fil0" d="M2548.73 1317.42l0 -174.59 96.35 0c8.48,0 15.66,3.02 21.56,9.06 5.89,6.04 8.83,13.15 8.83,21.34l0 64.23c0,8.19 -2.94,15.3 -8.83,21.34 -5.89,6.04 -13.08,9.05 -21.56,9.05l-65.74 0 0 49.57 -30.61 0zm37.94 -80.18l51.08 0c4.31,0 6.57,-0.15 6.79,-0.43 0.22,-0.29 0.32,-2.59 0.32,-6.9l0 -49.14c0,-4.31 -0.11,-6.61 -0.32,-6.9 -0.22,-0.29 -2.48,-0.43 -6.79,-0.43l-51.08 0c-4.31,0 -6.61,0.15 -6.9,0.43 -0.29,0.29 -0.43,2.59 -0.43,6.9l0 49.14c0,4.31 0.14,6.61 0.43,6.9 0.29,0.29 2.59,0.43 6.9,0.43z"/>
  <path id="2" class="fil0" d="M2721.6 1267.85c-8.19,0 -15.3,-3.02 -21.34,-9.05 -6.04,-6.04 -9.06,-13.15 -9.06,-21.34l0 -64.23c0,-8.19 3.02,-15.3 9.06,-21.34 6.04,-6.04 13.15,-9.06 21.34,-9.06l65.96 0c8.48,0 15.66,3.02 21.55,9.06 5.89,6.04 8.84,13.15 8.84,21.34l0 47.42 -96.13 0 0 9.27c0,4.31 0.15,6.61 0.43,6.9 0.29,0.29 2.59,0.43 6.9,0.43l88.8 0 0 30.61 -96.35 0zm0.21 -74.36l65.53 0 0 -12.72c0,-4.31 -0.11,-6.61 -0.32,-6.9 -0.22,-0.29 -2.55,-0.43 -7.01,-0.43l-50.87 0c-4.31,0 -6.61,0.15 -6.9,0.43 -0.29,0.29 -0.43,2.59 -0.43,6.9l0 12.72z"/>
  <path id="3" class="fil0" d="M2841.01 1267.85l0 -125.02 96.35 0c8.48,0 15.66,3.02 21.56,9.06 5.89,6.04 8.83,13.15 8.83,21.34l0 94.62 -30.61 0 0 -87.08c0,-4.31 -0.11,-6.61 -0.32,-6.9 -0.22,-0.29 -2.48,-0.43 -6.79,-0.43l-51.08 0c-4.31,0 -6.61,0.15 -6.9,0.43 -0.29,0.29 -0.43,2.59 -0.43,6.9l0 87.08 -30.61 0z"/>
  <path id="4" class="fil0" d="M2370.48 1538.14l0 -154.98 124.15 0c8.48,0 15.77,3.06 21.88,9.16 6.11,6.11 9.16,13.4 9.16,21.88l0 40.95c0,8.33 -3.06,15.56 -9.16,21.66 -6.11,6.11 -13.4,9.16 -21.88,9.16l-4.96 0 35.78 42.46 0 9.7 -32.55 0 -43.76 -52.16 -47.63 0.22 0 51.94 -31.04 0zm38.15 -83.2l78.46 0c4.31,0 6.61,-0.14 6.9,-0.43 0.29,-0.29 0.43,-2.59 0.43,-6.9l0 -26.3c0,-4.31 -0.14,-6.57 -0.43,-6.79 -0.29,-0.22 -2.59,-0.32 -6.9,-0.32l-78.46 0c-4.31,0 -6.57,0.11 -6.79,0.32 -0.22,0.22 -0.32,2.48 -0.32,6.79l0 26.3c0,4.31 0.11,6.61 0.32,6.9 0.22,0.29 2.48,0.43 6.79,0.43z"/>
  <path id="5" class="fil0" d="M2577.83 1538.14c-8.19,0 -15.3,-3.02 -21.34,-9.05 -6.04,-6.04 -9.06,-13.15 -9.06,-21.34l0 -64.23c0,-8.19 3.02,-15.3 9.06,-21.34 6.04,-6.04 13.15,-9.06 21.34,-9.06l65.96 0c8.48,0 15.66,3.02 21.55,9.06 5.89,6.04 8.84,13.15 8.84,21.34l0 47.42 -96.13 0 0 9.27c0,4.31 0.15,6.61 0.43,6.9 0.29,0.29 2.59,0.43 6.9,0.43l88.8 0 0 30.61 -96.35 0zm0.21 -74.36l65.53 0 0 -12.72c0,-4.31 -0.11,-6.61 -0.32,-6.9 -0.22,-0.29 -2.55,-0.43 -7.01,-0.43l-50.87 0c-4.31,0 -6.61,0.15 -6.9,0.43 -0.29,0.29 -0.43,2.59 -0.43,6.9l0 12.72z"/>
  <path id="6" class="fil0" d="M2712.98 1587.5l0 -30.82 68.76 0c4.45,0 6.79,-0.14 7,-0.43 0.22,-0.29 0.32,-2.59 0.32,-6.9l0 -11.21 -65.74 0c-8.33,0 -15.52,-3.02 -21.56,-9.05 -6.04,-6.04 -9.05,-13.15 -9.05,-21.34l0 -64.23c0,-8.19 3.02,-15.3 9.05,-21.34 6.04,-6.04 13.22,-9.06 21.56,-9.06l65.96 0c8.33,0 15.48,3.02 21.44,9.06 5.96,6.04 8.94,13.15 8.94,21.34l0 113.59c0,8.33 -2.98,15.48 -8.94,21.44 -5.96,5.96 -13.11,8.94 -21.44,8.94l-76.3 0zm17.67 -79.96l51.09 0c4.45,0 6.79,-0.15 7,-0.43 0.22,-0.29 0.32,-2.59 0.32,-6.9l0 -49.14c0,-4.31 -0.11,-6.61 -0.32,-6.9 -0.22,-0.29 -2.55,-0.43 -7,-0.43l-51.09 0c-4.31,0 -6.61,0.15 -6.9,0.43 -0.29,0.29 -0.43,2.59 -0.43,6.9l0 49.14c0,4.31 0.14,6.61 0.43,6.9 0.29,0.29 2.59,0.43 6.9,0.43z"/>
  <path id="7" class="fil0" d="M2842.31 1538.14l0 -125.02 30.61 0 0 125.02 -30.61 0zm0 -135.15l0 -30.82 30.61 0 0 30.82 -30.61 0z"/>
  <path id="8" class="fil0" d="M2927.87 1538.14c-8.19,0 -15.3,-3.02 -21.34,-9.05 -6.04,-6.04 -9.05,-13.15 -9.05,-21.34l0 -5.61 30.61 0 0 1.08c0,2.3 0.15,3.59 0.43,3.88 0.29,0.29 1.58,0.43 3.88,0.43l57.12 0c2.3,0 3.56,-0.15 3.77,-0.43 0.22,-0.29 0.33,-1.58 0.33,-3.88l0 -7.98c0,-2.3 -0.11,-3.59 -0.33,-3.88 -0.21,-0.29 -1.47,-0.43 -3.77,-0.43l-61.65 0c-8.19,0 -15.3,-2.98 -21.34,-8.94 -6.04,-5.96 -9.05,-13.11 -9.05,-21.44l0 -17.03c0,-8.19 3.02,-15.3 9.05,-21.34 6.04,-6.04 13.15,-9.06 21.34,-9.06l65.96 0c8.48,0 15.7,3.02 21.66,9.06 5.96,6.04 8.94,13.15 8.94,21.34l0 5.6 -30.82 0 0 -1.08c0,-2.3 -0.11,-3.59 -0.33,-3.88 -0.21,-0.29 -1.47,-0.43 -3.77,-0.43l-57.12 0c-2.3,0 -3.59,0.15 -3.88,0.43 -0.29,0.29 -0.43,1.58 -0.43,3.88l0 7.98c0,2.3 0.15,3.59 0.43,3.88 0.29,0.29 1.58,0.43 3.88,0.43l61.43 0c8.48,0 15.7,2.98 21.66,8.94 5.96,5.96 8.94,13.11 8.94,21.44l0 17.03c0,8.19 -2.98,15.3 -8.94,21.34 -5.96,6.04 -13.18,9.05 -21.66,9.05l-65.96 0z"/>
  <path id="9" class="fil0" d="M3077.03 1538.14c-8.33,0 -15.52,-3.02 -21.56,-9.05 -6.04,-6.04 -9.05,-13.15 -9.05,-21.34l0 -132.35 30.61 0 0 37.72 47.63 0 0 30.61 -47.63 0 0 56.47c0,4.31 0.14,6.61 0.43,6.9 0.29,0.29 2.59,0.43 6.9,0.43l40.31 0 0 30.61 -47.63 0z"/>
  <path id="10" class="fil0" d="M3143.85 1538.14l0 -94.62c0,-8.19 3.02,-15.3 9.05,-21.34 6.04,-6.04 13.22,-9.06 21.56,-9.06l69.19 0 0 30.61 -61.86 0c-4.31,0 -6.61,0.15 -6.9,0.43 -0.29,0.29 -0.43,2.59 -0.43,6.9l0 87.08 -30.61 0z"/>
  <path id="11" class="fil0" d="M3290.85 1538.14c-8.33,0 -15.48,-3.02 -21.44,-9.05 -5.96,-6.04 -8.94,-13.15 -8.94,-21.34l0 -47.42 96.13 0 0 -9.27c0,-4.31 -0.11,-6.61 -0.33,-6.9 -0.21,-0.29 -2.55,-0.43 -7,-0.43l-88.8 0 0 -30.61 96.35 0c8.48,0 15.67,3.02 21.56,9.06 5.89,6.04 8.84,13.15 8.84,21.34l0 94.62 -96.35 0zm7.55 -30.61l58.2 0 0 -20.05 -65.53 0 0 12.72c0,4.31 0.15,6.61 0.43,6.9 0.29,0.29 2.59,0.43 6.9,0.43z"/>
  <path id="12" class="fil0" d="M3440.87 1538.14c-8.33,0 -15.52,-3.02 -21.56,-9.05 -6.04,-6.04 -9.05,-13.15 -9.05,-21.34l0 -132.35 30.61 0 0 37.72 47.63 0 0 30.61 -47.63 0 0 56.47c0,4.31 0.14,6.61 0.43,6.9 0.29,0.29 2.59,0.43 6.9,0.43l40.31 0 0 30.61 -47.63 0z"/>
  <path id="13" class="fil0" d="M3506.18 1538.14l0 -125.02 30.61 0 0 125.02 -30.61 0zm0 -135.15l0 -30.82 30.61 0 0 30.82 -30.61 0z"/>
  <path id="14" class="fil0" d="M3585.07 1538.14c-8.19,0 -15.3,-3.02 -21.34,-9.05 -6.04,-6.04 -9.06,-13.15 -9.06,-21.34l0 -64.23c0,-8.19 3.02,-15.3 9.06,-21.34 6.04,-6.04 13.15,-9.06 21.34,-9.06l65.96 0c8.48,0 15.66,3.02 21.55,9.06 5.89,6.04 8.84,13.15 8.84,21.34l0 64.23c0,8.19 -2.94,15.3 -8.84,21.34 -5.89,6.04 -13.07,9.05 -21.55,9.05l-65.96 0zm7.54 -30.61l50.87 0c4.46,0 6.79,-0.15 7.01,-0.43 0.21,-0.29 0.32,-2.59 0.32,-6.9l0 -49.14c0,-4.31 -0.11,-6.61 -0.32,-6.9 -0.22,-0.29 -2.55,-0.43 -7.01,-0.43l-50.87 0c-4.31,0 -6.61,0.15 -6.9,0.43 -0.29,0.29 -0.43,2.59 -0.43,6.9l0 49.14c0,4.31 0.15,6.61 0.43,6.9 0.29,0.29 2.59,0.43 6.9,0.43z"/>
  <path id="15" class="fil0" d="M3698.66 1538.14l0 -125.02 96.35 0c8.48,0 15.66,3.02 21.56,9.06 5.89,6.04 8.83,13.15 8.83,21.34l0 94.62 -30.61 0 0 -87.08c0,-4.31 -0.11,-6.61 -0.32,-6.9 -0.22,-0.29 -2.48,-0.43 -6.79,-0.43l-51.08 0c-4.31,0 -6.61,0.15 -6.9,0.43 -0.29,0.29 -0.43,2.59 -0.43,6.9l0 87.08 -30.61 0z"/>
  <g id="_1404944539440">
   <path class="fil0" d="M1979.24 2012.7l0 -69c0,-9.5 3.38,-17.62 10.13,-24.37 6.75,-6.75 14.87,-10.13 24.37,-10.13l102.25 0c4.67,0 7.29,-0.29 7.88,-0.87 0.58,-0.58 0.87,-3.21 0.87,-7.87l0 -26.25c0,-4.67 -0.29,-7.29 -0.87,-7.88 -0.59,-0.58 -3.21,-0.87 -7.88,-0.87l-95.25 0c-4.67,0 -7.29,0.29 -7.87,0.87 -0.58,0.59 -0.87,3.21 -0.87,7.88l0 6.5 -32.75 0 0 -13.5c0,-9.67 3.38,-17.83 10.13,-24.5 6.75,-6.67 14.87,-10 24.37,-10l109.25 0c9.5,0 17.63,3.33 24.38,10 6.75,6.67 10.12,14.83 10.12,24.5l0 40.5c0,9.5 -3.37,17.63 -10.12,24.38 -6.75,6.75 -14.88,10.12 -24.38,10.12l-102.25 0c-4.67,0 -7.29,0.29 -7.87,0.88 -0.58,0.58 -0.87,3.2 -0.87,7.87l0 20.25c0,4.67 0.29,7.29 0.87,7.87 0.58,0.59 3.21,0.88 7.87,0.88l136.75 0 0 32.75 -178.25 0z"/>
   <path id="1" class="fil0" d="M2221.23 2012.7c-9.5,0 -17.62,-3.37 -24.37,-10.13 -6.75,-6.75 -10.13,-14.87 -10.13,-24.37l0 -111c0,-9.67 3.38,-17.83 10.13,-24.5 6.75,-6.67 14.87,-10 24.37,-10l115.25 0 0 32.75 -108.25 0c-4.67,0 -7.29,0.29 -7.87,0.87 -0.58,0.59 -0.87,3.21 -0.87,7.88l0 21.25c0,4.67 0.29,7.29 0.87,7.87 0.58,0.58 3.21,0.87 7.87,0.87l102.25 0c9.5,0 17.63,3.38 24.38,10.13 6.75,6.75 10.12,14.87 10.12,24.37l0 39.5c0,9.5 -3.37,17.63 -10.12,24.37 -6.75,6.75 -14.88,10.13 -24.38,10.13l-109.25 0zm7 -32.75l95.25 0c4.67,0 7.29,-0.29 7.88,-0.88 0.58,-0.58 0.87,-3.21 0.87,-7.87l0 -25.25c0,-4.67 -0.29,-7.29 -0.87,-7.87 -0.59,-0.59 -3.21,-0.88 -7.88,-0.88l-104 0 0 34c0,4.67 0.29,7.29 0.87,7.87 0.58,0.59 3.21,0.88 7.87,0.88z"/>
   <path class="fil1" d="M2038.72 2065.72l0 96.83c0,13.22 -3.66,23.5 -10.98,30.82 -7.32,7.33 -17.47,10.99 -30.43,10.99 -14,0 -25.08,-4.02 -33.25,-12.06 -8.17,-8.04 -12.25,-19.51 -12.25,-34.42l27.03 0c0,7 1.46,12.38 4.37,16.14 2.92,3.76 7.23,5.64 12.93,5.64 5.19,0 9.01,-1.52 11.47,-4.57 2.46,-3.05 3.7,-7.23 3.7,-12.54l0 -96.83 27.41 0z"/>
   <path id="1" class="fil1" d="M2165.69 2095.28l0 107.72 -27.41 0 0 -21.78c-2.85,7.26 -7.55,12.93 -14.1,17.01 -6.55,4.08 -14.09,6.13 -22.65,6.13 -12.44,0 -22.36,-4.08 -29.75,-12.25 -7.39,-8.17 -11.08,-19.57 -11.08,-34.22l0 -62.61 27.22 0 0 59.5c0,8.56 2.2,15.2 6.61,19.93 4.41,4.73 10.37,7.1 17.89,7.1 7.91,0 14.19,-2.53 18.86,-7.58 4.67,-5.06 7,-12.31 7,-21.78l0 -57.17 27.41 0z"/>
   <path id="2" class="fil1" d="M2254.74 2093.72c12.44,0 22.36,4.08 29.75,12.25 7.39,8.17 11.08,19.64 11.08,34.42l0 62.61 -27.22 0 0 -59.5c0,-8.56 -2.2,-15.2 -6.61,-19.93 -4.41,-4.73 -10.44,-7.1 -18.08,-7.1 -7.78,0 -14,2.53 -18.67,7.58 -4.67,5.06 -7,12.31 -7,21.78l0 57.17 -27.42 0 0 -107.72 27.42 0 0 21.58c2.85,-7.26 7.55,-12.93 14.09,-17.01 6.55,-4.08 14.1,-6.13 22.65,-6.13z"/>
   <path id="3" class="fil1" d="M2316.58 2064.36c0,-4.41 1.56,-8 4.67,-10.79 3.11,-2.79 7.19,-4.18 12.25,-4.18 5.06,0 9.14,1.39 12.25,4.18 3.11,2.79 4.67,6.39 4.67,10.79 0,4.28 -1.56,7.81 -4.67,10.6 -3.11,2.79 -7.2,4.18 -12.25,4.18 -5.06,0 -9.14,-1.39 -12.25,-4.18 -3.11,-2.79 -4.67,-6.32 -4.67,-10.6zm30.53 30.92l0 107.72 -27.42 0 0 -107.72 27.42 0z"/>
  </g>
  <g id="_1404944537136">
   <path class="fil0" d="M1958.61 3005.28l0 -69c0,-9.5 3.38,-17.62 10.13,-24.37 6.75,-6.75 14.87,-10.13 24.37,-10.13l102.25 0c4.67,0 7.29,-0.29 7.88,-0.87 0.58,-0.58 0.87,-3.21 0.87,-7.87l0 -26.25c0,-4.67 -0.29,-7.29 -0.87,-7.88 -0.59,-0.58 -3.21,-0.87 -7.88,-0.87l-95.25 0c-4.67,0 -7.29,0.29 -7.87,0.87 -0.58,0.59 -0.87,3.21 -0.87,7.88l0 6.5 -32.75 0 0 -13.5c0,-9.67 3.38,-17.83 10.13,-24.5 6.75,-6.67 14.87,-10 24.37,-10l109.25 0c9.5,0 17.63,3.33 24.38,10 6.75,6.67 10.12,14.83 10.12,24.5l0 40.5c0,9.5 -3.37,17.63 -10.12,24.38 -6.75,6.75 -14.88,10.12 -24.38,10.12l-102.25 0c-4.67,0 -7.29,0.29 -7.87,0.88 -0.58,0.58 -0.87,3.2 -0.87,7.87l0 20.25c0,4.67 0.29,7.29 0.87,7.87 0.58,0.59 3.21,0.88 7.87,0.88l136.75 0 0 32.75 -178.25 0z"/>
   <path id="1" class="fil0" d="M2200.61 3005.28c-9.5,0 -17.62,-3.37 -24.37,-10.13 -6.75,-6.75 -10.13,-14.87 -10.13,-24.37l0 -39.25c0,-3 0.5,-6.04 1.5,-9.13 1,-3.08 2.25,-6.04 3.75,-8.87 -1.5,-2.83 -2.75,-5.79 -3.75,-8.87 -1,-3.09 -1.5,-6.21 -1.5,-9.38l0 -35.5c0,-9.67 3.38,-17.83 10.13,-24.5 6.75,-6.67 14.87,-10 24.37,-10l109.25 0c8.33,0 15.79,2.75 22.38,8.25 6.58,5.5 10.62,12.17 12.12,20l0 41.75c0,3 -0.46,6.09 -1.37,9.25 -0.92,3.17 -2.21,6.17 -3.87,9 1.83,2.83 3.17,5.75 4,8.75 0.83,3 1.25,6.08 1.25,9.25l0 39.25c0,9.5 -3.37,17.63 -10.12,24.37 -6.75,6.75 -14.88,10.13 -24.38,10.13l-109.25 0zm7 -32.75l95.25 0c4.67,0 7.29,-0.29 7.88,-0.88 0.58,-0.58 0.87,-3.21 0.87,-7.87l0 -25c0,-4.67 -0.29,-7.29 -0.87,-7.87 -0.59,-0.58 -3.21,-0.87 -7.88,-0.87l-95.25 0c-4.67,0 -7.29,0.29 -7.87,0.87 -0.58,0.58 -0.87,3.21 -0.87,7.87l0 25c0,4.67 0.29,7.29 0.87,7.87 0.58,0.59 3.21,0.88 7.87,0.88zm0 -72.75l95.25 0c4.67,0 7.29,-0.33 7.88,-1 0.58,-0.67 0.87,-3.25 0.87,-7.75l0 -24c0,-4.67 -0.29,-7.29 -0.87,-7.87 -0.59,-0.58 -3.21,-0.87 -7.88,-0.87l-95.25 0c-4.67,0 -7.29,0.29 -7.87,0.87 -0.58,0.58 -0.87,3.21 -0.87,7.87l0 24c0,4.5 0.29,7.08 0.87,7.75 0.58,0.67 3.21,1 7.87,1z"/>
   <path class="fil1" d="M2038.72 3058.31l0 96.83c0,13.22 -3.66,23.5 -10.98,30.82 -7.32,7.33 -17.47,10.99 -30.43,10.99 -14,0 -25.08,-4.02 -33.25,-12.06 -8.17,-8.04 -12.25,-19.51 -12.25,-34.42l27.03 0c0,7 1.46,12.38 4.37,16.14 2.92,3.76 7.23,5.64 12.93,5.64 5.19,0 9.01,-1.52 11.47,-4.57 2.46,-3.05 3.7,-7.23 3.7,-12.54l0 -96.83 27.41 0z"/>
   <path id="1" class="fil1" d="M2165.69 3087.87l0 107.72 -27.41 0 0 -21.78c-2.85,7.26 -7.55,12.93 -14.1,17.01 -6.55,4.08 -14.09,6.13 -22.65,6.13 -12.44,0 -22.36,-4.08 -29.75,-12.25 -7.39,-8.17 -11.08,-19.57 -11.08,-34.22l0 -62.61 27.22 0 0 59.5c0,8.56 2.2,15.2 6.61,19.93 4.41,4.73 10.37,7.1 17.89,7.1 7.91,0 14.19,-2.53 18.86,-7.58 4.67,-5.06 7,-12.31 7,-21.78l0 -57.17 27.41 0z"/>
   <path id="2" class="fil1" d="M2254.74 3086.31c12.44,0 22.36,4.08 29.75,12.25 7.39,8.17 11.08,19.64 11.08,34.42l0 62.61 -27.22 0 0 -59.5c0,-8.56 -2.2,-15.2 -6.61,-19.93 -4.41,-4.73 -10.44,-7.1 -18.08,-7.1 -7.78,0 -14,2.53 -18.67,7.58 -4.67,5.06 -7,12.31 -7,21.78l0 57.17 -27.42 0 0 -107.72 27.42 0 0 21.58c2.85,-7.26 7.55,-12.93 14.09,-17.01 6.55,-4.08 14.1,-6.13 22.65,-6.13z"/>
   <path id="3" class="fil1" d="M2316.58 3056.95c0,-4.41 1.56,-8 4.67,-10.79 3.11,-2.79 7.19,-4.18 12.25,-4.18 5.06,0 9.14,1.39 12.25,4.18 3.11,2.79 4.67,6.39 4.67,10.79 0,4.28 -1.56,7.81 -4.67,10.6 -3.11,2.79 -7.2,4.18 -12.25,4.18 -5.06,0 -9.14,-1.39 -12.25,-4.18 -3.11,-2.79 -4.67,-6.32 -4.67,-10.6zm30.53 30.92l0 107.72 -27.42 0 0 -107.72 27.42 0z"/>
  </g>
  <path class="fil0" d="M759.58 2958.96l0 -154.98 124.15 0c8.48,0 15.77,3.06 21.88,9.16 6.11,6.11 9.16,13.4 9.16,21.88l0 40.95c0,8.33 -3.05,15.56 -9.16,21.66 -6.11,6.11 -13.4,9.16 -21.88,9.16l-93.11 0.22 0 51.94 -31.04 0zm38.15 -83.2l78.46 0c4.31,0 6.61,-0.14 6.89,-0.43 0.29,-0.29 0.43,-2.59 0.43,-6.9l0 -26.3c0,-4.31 -0.15,-6.57 -0.43,-6.79 -0.29,-0.22 -2.58,-0.32 -6.89,-0.32l-78.46 0c-4.31,0 -6.57,0.11 -6.79,0.32 -0.22,0.22 -0.32,2.48 -0.32,6.79l0 26.3c0,4.31 0.11,6.61 0.32,6.9 0.21,0.29 2.48,0.43 6.79,0.43z"/>
  <path id="1" class="fil0" d="M929.22 2958.96l0 -94.62c0,-8.19 3.02,-15.3 9.05,-21.34 6.04,-6.04 13.22,-9.06 21.56,-9.06l69.19 0 0 30.61 -61.86 0c-4.31,0 -6.61,0.15 -6.9,0.43 -0.29,0.29 -0.43,2.59 -0.43,6.9l0 87.08 -30.61 0z"/>
  <path id="2" class="fil0" d="M1076.22 2958.96c-8.33,0 -15.48,-3.02 -21.44,-9.05 -5.96,-6.04 -8.94,-13.15 -8.94,-21.34l0 -47.42 96.13 0 0 -9.27c0,-4.31 -0.11,-6.61 -0.33,-6.9 -0.21,-0.29 -2.55,-0.43 -7,-0.43l-88.8 0 0 -30.61 96.35 0c8.48,0 15.67,3.02 21.56,9.06 5.89,6.04 8.84,13.15 8.84,21.34l0 94.62 -96.35 0zm7.55 -30.61l58.2 0 0 -20.05 -65.53 0 0 12.72c0,4.31 0.15,6.61 0.43,6.9 0.29,0.29 2.59,0.43 6.9,0.43z"/>
  <path id="3" class="fil0" d="M1218.91 2958.96c-8.19,0 -15.3,-3.02 -21.34,-9.05 -6.04,-6.04 -9.06,-13.15 -9.06,-21.34l0 -64.23c0,-8.19 3.02,-15.3 9.06,-21.34 6.04,-6.04 13.15,-9.06 21.34,-9.06l96.13 0 0 30.61 -88.59 0c-4.31,0 -6.61,0.15 -6.9,0.43 -0.29,0.29 -0.43,2.59 -0.43,6.9l0 49.14c0,4.31 0.15,6.61 0.43,6.9 0.29,0.29 2.59,0.43 6.9,0.43l88.8 0 0 30.61 -96.35 0z"/>
  <path id="4" class="fil0" d="M1363.54 2958.96c-8.33,0 -15.52,-3.02 -21.56,-9.05 -6.04,-6.04 -9.05,-13.15 -9.05,-21.34l0 -132.35 30.61 0 0 37.72 47.63 0 0 30.61 -47.63 0 0 56.47c0,4.31 0.14,6.61 0.43,6.9 0.29,0.29 2.59,0.43 6.9,0.43l40.31 0 0 30.61 -47.63 0z"/>
  <path id="5" class="fil0" d="M1428.85 2958.96l0 -125.02 30.61 0 0 125.02 -30.61 0zm0 -135.15l0 -30.82 30.61 0 0 30.82 -30.61 0z"/>
  <path id="6" class="fil0" d="M1509.04 2958.96c-8.19,0 -15.3,-3.02 -21.34,-9.05 -6.04,-6.04 -9.06,-13.15 -9.06,-21.34l0 -64.23c0,-8.19 3.02,-15.3 9.06,-21.34 6.04,-6.04 13.15,-9.06 21.34,-9.06l96.13 0 0 30.61 -88.59 0c-4.31,0 -6.61,0.15 -6.9,0.43 -0.29,0.29 -0.43,2.59 -0.43,6.9l0 49.14c0,4.31 0.15,6.61 0.43,6.9 0.29,0.29 2.59,0.43 6.9,0.43l88.8 0 0 30.61 -96.35 0z"/>
  <path id="7" class="fil0" d="M1653.45 2958.96c-8.19,0 -15.3,-3.02 -21.34,-9.05 -6.04,-6.04 -9.06,-13.15 -9.06,-21.34l0 -64.23c0,-8.19 3.02,-15.3 9.06,-21.34 6.04,-6.04 13.15,-9.06 21.34,-9.06l65.96 0c8.48,0 15.66,3.02 21.55,9.06 5.89,6.04 8.84,13.15 8.84,21.34l0 47.42 -96.13 0 0 9.27c0,4.31 0.15,6.61 0.43,6.9 0.29,0.29 2.59,0.43 6.9,0.43l88.8 0 0 30.61 -96.35 0zm0.21 -74.36l65.53 0 0 -12.72c0,-4.31 -0.11,-6.61 -0.32,-6.9 -0.22,-0.29 -2.55,-0.43 -7.01,-0.43l-50.87 0c-4.31,0 -6.61,0.15 -6.9,0.43 -0.29,0.29 -0.43,2.59 -0.43,6.9l0 12.72z"/>
  <path id="8" class="fil0" d="M840.2 3229.25c-8.48,0 -15.73,-3.02 -21.77,-9.05 -6.04,-6.04 -9.06,-13.37 -9.06,-21.99l0 -13.15 30.82 0 0 5.82c0,4.31 0.15,6.61 0.43,6.9 0.29,0.29 2.59,0.43 6.9,0.43l78.24 0c4.46,0 6.79,-0.14 7.01,-0.43 0.21,-0.29 0.32,-2.59 0.32,-6.9l0 -16.38c0,-4.31 -0.11,-6.61 -0.32,-6.9 -0.22,-0.29 -2.55,-0.43 -7.01,-0.43l-85.57 0c-8.48,0 -15.73,-3.02 -21.77,-9.06 -6.04,-6.04 -9.06,-13.29 -9.06,-21.77l0 -31.26c0,-8.62 3.02,-15.95 9.06,-21.98 6.04,-6.04 13.29,-9.06 21.77,-9.06l93.33 0c8.33,0 15.59,3.02 21.77,9.06 6.18,6.04 9.27,13.36 9.27,21.98l0 13.15 -31.47 0 0 -5.82c0,-4.31 -0.11,-6.61 -0.32,-6.9 -0.22,-0.29 -2.55,-0.43 -7.01,-0.43l-78.24 0c-4.31,0 -6.61,0.15 -6.9,0.43 -0.29,0.29 -0.43,2.59 -0.43,6.9l0 16.38c0,4.31 0.15,6.61 0.43,6.9 0.29,0.29 2.59,0.43 6.9,0.43l86 0c8.33,0 15.59,3.02 21.77,9.05 6.18,6.04 9.27,13.29 9.27,21.77l0 31.25c0,8.62 -3.09,15.95 -9.27,21.99 -6.18,6.04 -13.44,9.05 -21.77,9.05l-93.33 0z"/>
  <path id="9" class="fil0" d="M1017.38 3229.25c-8.19,0 -15.3,-3.02 -21.34,-9.05 -6.04,-6.04 -9.06,-13.15 -9.06,-21.34l0 -64.23c0,-8.19 3.02,-15.3 9.06,-21.34 6.04,-6.04 13.15,-9.06 21.34,-9.06l65.96 0c8.48,0 15.66,3.02 21.55,9.06 5.89,6.04 8.84,13.15 8.84,21.34l0 47.42 -96.13 0 0 9.27c0,4.31 0.15,6.61 0.43,6.9 0.29,0.29 2.59,0.43 6.9,0.43l88.8 0 0 30.61 -96.35 0zm0.21 -74.36l65.53 0 0 -12.72c0,-4.31 -0.11,-6.61 -0.32,-6.9 -0.22,-0.29 -2.55,-0.43 -7.01,-0.43l-50.87 0c-4.31,0 -6.61,0.15 -6.9,0.43 -0.29,0.29 -0.43,2.59 -0.43,6.9l0 12.72z"/>
  <path id="10" class="fil0" d="M1164.17 3229.25c-8.19,0 -15.3,-3.02 -21.34,-9.05 -6.04,-6.04 -9.05,-13.15 -9.05,-21.34l0 -5.61 30.61 0 0 1.08c0,2.3 0.15,3.59 0.43,3.88 0.29,0.29 1.58,0.43 3.88,0.43l57.12 0c2.3,0 3.56,-0.15 3.77,-0.43 0.22,-0.29 0.33,-1.58 0.33,-3.88l0 -7.98c0,-2.3 -0.11,-3.59 -0.33,-3.88 -0.21,-0.29 -1.47,-0.43 -3.77,-0.43l-61.65 0c-8.19,0 -15.3,-2.98 -21.34,-8.94 -6.04,-5.96 -9.05,-13.11 -9.05,-21.44l0 -17.03c0,-8.19 3.02,-15.3 9.05,-21.34 6.04,-6.04 13.15,-9.06 21.34,-9.06l65.96 0c8.48,0 15.7,3.02 21.66,9.06 5.96,6.04 8.94,13.15 8.94,21.34l0 5.6 -30.82 0 0 -1.08c0,-2.3 -0.11,-3.59 -0.33,-3.88 -0.21,-0.29 -1.47,-0.43 -3.77,-0.43l-57.12 0c-2.3,0 -3.59,0.15 -3.88,0.43 -0.29,0.29 -0.43,1.58 -0.43,3.88l0 7.98c0,2.3 0.15,3.59 0.43,3.88 0.29,0.29 1.58,0.43 3.88,0.43l61.43 0c8.48,0 15.7,2.98 21.66,8.94 5.96,5.96 8.94,13.11 8.94,21.44l0 17.03c0,8.19 -2.98,15.3 -8.94,21.34 -5.96,6.04 -13.18,9.05 -21.66,9.05l-65.96 0z"/>
  <path id="11" class="fil0" d="M1312.03 3229.25c-8.19,0 -15.3,-3.02 -21.34,-9.05 -6.04,-6.04 -9.05,-13.15 -9.05,-21.34l0 -5.61 30.61 0 0 1.08c0,2.3 0.15,3.59 0.43,3.88 0.29,0.29 1.58,0.43 3.88,0.43l57.12 0c2.3,0 3.56,-0.15 3.77,-0.43 0.22,-0.29 0.33,-1.58 0.33,-3.88l0 -7.98c0,-2.3 -0.11,-3.59 -0.33,-3.88 -0.21,-0.29 -1.47,-0.43 -3.77,-0.43l-61.65 0c-8.19,0 -15.3,-2.98 -21.34,-8.94 -6.04,-5.96 -9.05,-13.11 -9.05,-21.44l0 -17.03c0,-8.19 3.02,-15.3 9.05,-21.34 6.04,-6.04 13.15,-9.06 21.34,-9.06l65.96 0c8.48,0 15.7,3.02 21.66,9.06 5.96,6.04 8.94,13.15 8.94,21.34l0 5.6 -30.82 0 0 -1.08c0,-2.3 -0.11,-3.59 -0.33,-3.88 -0.21,-0.29 -1.47,-0.43 -3.77,-0.43l-57.12 0c-2.3,0 -3.59,0.15 -3.88,0.43 -0.29,0.29 -0.43,1.58 -0.43,3.88l0 7.98c0,2.3 0.15,3.59 0.43,3.88 0.29,0.29 1.58,0.43 3.88,0.43l61.43 0c8.48,0 15.7,2.98 21.66,8.94 5.96,5.96 8.94,13.11 8.94,21.44l0 17.03c0,8.19 -2.98,15.3 -8.94,21.34 -5.96,6.04 -13.18,9.05 -21.66,9.05l-65.96 0z"/>
  <path id="12" class="fil0" d="M1430.36 3229.25l0 -125.02 30.61 0 0 125.02 -30.61 0zm0 -135.15l0 -30.82 30.61 0 0 30.82 -30.61 0z"/>
  <path id="13" class="fil0" d="M1509.25 3229.25c-8.19,0 -15.3,-3.02 -21.34,-9.05 -6.04,-6.04 -9.06,-13.15 -9.06,-21.34l0 -64.23c0,-8.19 3.02,-15.3 9.06,-21.34 6.04,-6.04 13.15,-9.06 21.34,-9.06l65.96 0c8.48,0 15.66,3.02 21.55,9.06 5.89,6.04 8.84,13.15 8.84,21.34l0 64.23c0,8.19 -2.94,15.3 -8.84,21.34 -5.89,6.04 -13.07,9.05 -21.55,9.05l-65.96 0zm7.54 -30.61l50.87 0c4.46,0 6.79,-0.15 7.01,-0.43 0.21,-0.29 0.32,-2.59 0.32,-6.9l0 -49.14c0,-4.31 -0.11,-6.61 -0.32,-6.9 -0.22,-0.29 -2.55,-0.43 -7.01,-0.43l-50.87 0c-4.31,0 -6.61,0.15 -6.9,0.43 -0.29,0.29 -0.43,2.59 -0.43,6.9l0 49.14c0,4.31 0.15,6.61 0.43,6.9 0.29,0.29 2.59,0.43 6.9,0.43z"/>
  <path id="14" class="fil0" d="M1622.84 3229.25l0 -125.02 96.35 0c8.48,0 15.66,3.02 21.56,9.06 5.89,6.04 8.83,13.15 8.83,21.34l0 94.62 -30.61 0 0 -87.08c0,-4.31 -0.11,-6.61 -0.32,-6.9 -0.22,-0.29 -2.48,-0.43 -6.79,-0.43l-51.08 0c-4.31,0 -6.61,0.15 -6.9,0.43 -0.29,0.29 -0.43,2.59 -0.43,6.9l0 87.08 -30.61 0z"/>
  <g id="_1404944535536">
   <path class="fil0" d="M1992.99 4006.38c-9.67,0 -17.87,-3.37 -24.63,-10.13 -6.75,-6.75 -10.13,-14.87 -10.13,-24.37l0 -10.75 32.75 0 0 3.75c0,4.67 0.29,7.29 0.87,7.87 0.58,0.59 3.21,0.88 7.87,0.88l95.5 0c4.5,0 7.08,-0.29 7.75,-0.88 0.67,-0.58 1,-3.21 1,-7.87l0 -24.5c0,-4.67 -0.33,-7.29 -1,-7.87 -0.67,-0.58 -3.25,-0.87 -7.75,-0.87l-106 0 0 -32.75 98.75 0c4.67,0 7.29,-0.29 7.88,-0.87 0.58,-0.58 0.87,-3.21 0.87,-7.87l0 -22.25c0,-4.67 -0.29,-7.29 -0.87,-7.88 -0.59,-0.58 -3.21,-0.87 -7.88,-0.87l-88.25 0c-4.67,0 -7.29,0.29 -7.87,0.87 -0.58,0.59 -0.87,3.21 -0.87,7.88l0 6 -32.75 0 0 -13c0,-9.67 3.38,-17.83 10.13,-24.5 6.75,-6.67 14.96,-10 24.63,-10l102 0c9.67,0 17.83,3.33 24.5,10 6.67,6.67 10,14.83 10,24.5l0 36.5c0,2 -0.17,4.04 -0.5,6.13 -0.33,2.08 -0.83,4.04 -1.5,5.87 3,3.17 5.29,6.88 6.87,11.13 1.59,4.25 2.38,8.54 2.38,12.87l0 38.5c0,9.5 -3.38,17.63 -10.13,24.37 -6.75,6.75 -14.87,10.13 -24.37,10.13l-109.25 0z"/>
   <path id="1" class="fil0" d="M2200.23 4006.38c-9.5,0 -17.62,-3.67 -24.37,-11 -6.75,-7.33 -10.13,-15.67 -10.13,-25l0 -108.75c0,-9.67 3.38,-17.96 10.13,-24.87 6.75,-6.92 14.87,-10.37 24.37,-10.37l109.25 0c9.5,0 17.63,3.46 24.38,10.37 6.75,6.92 10.12,15.21 10.12,24.87l0 108.75c0,9.33 -3.37,17.67 -10.12,25 -6.75,7.33 -14.88,11 -24.38,11l-109.25 0zm13.25 -34.5l89 0c4.67,0 7.29,-0.29 7.88,-0.87 0.58,-0.58 0.87,-3.21 0.87,-7.87l0 -72.75 -97.75 81.5zm-15 -30.5l97.75 -81.5 -89 0c-4.67,0 -7.29,0.29 -7.87,0.87 -0.58,0.58 -0.87,3.21 -0.87,7.87l0 72.75z"/>
   <path class="fil1" d="M2038.72 4059.41l0 96.83c0,13.22 -3.66,23.5 -10.98,30.82 -7.32,7.33 -17.47,10.99 -30.43,10.99 -14,0 -25.08,-4.02 -33.25,-12.06 -8.17,-8.04 -12.25,-19.51 -12.25,-34.42l27.03 0c0,7 1.46,12.38 4.37,16.14 2.92,3.76 7.23,5.64 12.93,5.64 5.19,0 9.01,-1.52 11.47,-4.57 2.46,-3.05 3.7,-7.23 3.7,-12.54l0 -96.83 27.41 0z"/>
   <path id="1" class="fil1" d="M2165.69 4088.96l0 107.72 -27.41 0 0 -21.78c-2.85,7.26 -7.55,12.93 -14.1,17.01 -6.55,4.08 -14.09,6.13 -22.65,6.13 -12.44,0 -22.36,-4.08 -29.75,-12.25 -7.39,-8.17 -11.08,-19.57 -11.08,-34.22l0 -62.61 27.22 0 0 59.5c0,8.56 2.2,15.2 6.61,19.93 4.41,4.73 10.37,7.1 17.89,7.1 7.91,0 14.19,-2.53 18.86,-7.58 4.67,-5.06 7,-12.31 7,-21.78l0 -57.17 27.41 0z"/>
   <path id="2" class="fil1" d="M2254.74 4087.41c12.44,0 22.36,4.08 29.75,12.25 7.39,8.17 11.08,19.64 11.08,34.42l0 62.61 -27.22 0 0 -59.5c0,-8.56 -2.2,-15.2 -6.61,-19.93 -4.41,-4.73 -10.44,-7.1 -18.08,-7.1 -7.78,0 -14,2.53 -18.67,7.58 -4.67,5.06 -7,12.31 -7,21.78l0 57.17 -27.42 0 0 -107.72 27.42 0 0 21.58c2.85,-7.26 7.55,-12.93 14.09,-17.01 6.55,-4.08 14.1,-6.13 22.65,-6.13z"/>
   <path id="3" class="fil1" d="M2316.58 4058.05c0,-4.41 1.56,-8 4.67,-10.79 3.11,-2.79 7.19,-4.18 12.25,-4.18 5.06,0 9.14,1.39 12.25,4.18 3.11,2.79 4.67,6.39 4.67,10.79 0,4.28 -1.56,7.81 -4.67,10.6 -3.11,2.79 -7.2,4.18 -12.25,4.18 -5.06,0 -9.14,-1.39 -12.25,-4.18 -3.11,-2.79 -4.67,-6.32 -4.67,-10.6zm30.53 30.92l0 107.72 -27.42 0 0 -107.72 27.42 0z"/>
  </g>
  <polygon class="fil0" points="2588.18,3937.31 2588.18,3813.16 2526.1,3813.16 2526.1,3782.12 2681.3,3782.12 2681.3,3813.16 2619.22,3813.16 2619.22,3937.31 "/>
  <path id="1" class="fil0" d="M2726.99 3937.31c-8.33,0 -15.48,-3.02 -21.44,-9.05 -5.96,-6.04 -8.94,-13.15 -8.94,-21.34l0 -47.42 96.13 0 0 -9.27c0,-4.31 -0.11,-6.61 -0.33,-6.9 -0.21,-0.29 -2.55,-0.43 -7,-0.43l-88.8 0 0 -30.61 96.35 0c8.48,0 15.67,3.02 21.56,9.06 5.89,6.04 8.84,13.15 8.84,21.34l0 94.62 -96.35 0zm7.55 -30.61l58.2 0 0 -20.05 -65.53 0 0 12.72c0,4.31 0.15,6.61 0.43,6.9 0.29,0.29 2.59,0.43 6.9,0.43z"/>
  <path id="2" class="fil0" d="M2844.89 3937.31l0 -165.97 30.61 0 0 40.95 65.74 0c8.33,0 15.48,3.02 21.44,9.06 5.96,6.04 8.94,13.15 8.94,21.34l0 94.62 -30.61 0 0 -87.08c0,-4.31 -0.11,-6.61 -0.32,-6.9 -0.22,-0.29 -2.48,-0.43 -6.79,-0.43l-51.08 0c-4.31,0 -6.61,0.15 -6.9,0.43 -0.29,0.29 -0.43,2.59 -0.43,6.9l0 87.08 -30.61 0z"/>
  <path id="3" class="fil0" d="M3019.05 3937.31c-8.33,0 -15.48,-3.02 -21.44,-9.05 -5.96,-6.04 -8.94,-13.15 -8.94,-21.34l0 -47.42 96.13 0 0 -9.27c0,-4.31 -0.11,-6.61 -0.33,-6.9 -0.21,-0.29 -2.55,-0.43 -7,-0.43l-88.8 0 0 -30.61 96.35 0c8.48,0 15.67,3.02 21.56,9.06 5.89,6.04 8.84,13.15 8.84,21.34l0 94.62 -96.35 0zm7.55 -30.61l58.2 0 0 -20.05 -65.53 0 0 12.72c0,4.31 0.15,6.61 0.43,6.9 0.29,0.29 2.59,0.43 6.9,0.43z"/>
  <path id="4" class="fil0" d="M3138.67 3986.89l0 -174.59 96.35 0c8.48,0 15.66,3.02 21.56,9.06 5.89,6.04 8.83,13.15 8.83,21.34l0 64.23c0,8.19 -2.94,15.3 -8.83,21.34 -5.89,6.04 -13.08,9.05 -21.56,9.05l-65.74 0 0 49.57 -30.61 0zm37.94 -80.18l51.08 0c4.31,0 6.57,-0.15 6.79,-0.43 0.22,-0.29 0.32,-2.59 0.32,-6.9l0 -49.14c0,-4.31 -0.11,-6.61 -0.32,-6.9 -0.22,-0.29 -2.48,-0.43 -6.79,-0.43l-51.08 0c-4.31,0 -6.61,0.15 -6.9,0.43 -0.29,0.29 -0.43,2.59 -0.43,6.9l0 49.14c0,4.31 0.14,6.61 0.43,6.9 0.29,0.29 2.59,0.43 6.9,0.43z"/>
  <path id="5" class="fil0" d="M2533.86 4207.61l0 -154.98 124.15 0c8.48,0 15.77,3.06 21.88,9.16 6.11,6.11 9.16,13.4 9.16,21.88l0 40.95c0,8.33 -3.05,15.56 -9.16,21.66 -6.11,6.11 -13.4,9.16 -21.88,9.16l-93.11 0.22 0 51.94 -31.04 0zm38.15 -83.2l78.46 0c4.31,0 6.61,-0.14 6.89,-0.43 0.29,-0.29 0.43,-2.59 0.43,-6.9l0 -26.3c0,-4.31 -0.15,-6.57 -0.43,-6.79 -0.29,-0.22 -2.58,-0.32 -6.89,-0.32l-78.46 0c-4.31,0 -6.57,0.11 -6.79,0.32 -0.22,0.22 -0.32,2.48 -0.32,6.79l0 26.3c0,4.31 0.11,6.61 0.32,6.9 0.21,0.29 2.48,0.43 6.79,0.43z"/>
  <path id="6" class="fil0" d="M2733.67 4207.61c-8.19,0 -15.3,-3.02 -21.34,-9.05 -6.04,-6.04 -9.06,-13.15 -9.06,-21.34l0 -64.23c0,-8.19 3.02,-15.3 9.06,-21.34 6.04,-6.04 13.15,-9.06 21.34,-9.06l65.96 0c8.48,0 15.66,3.02 21.55,9.06 5.89,6.04 8.84,13.15 8.84,21.34l0 47.42 -96.13 0 0 9.27c0,4.31 0.15,6.61 0.43,6.9 0.29,0.29 2.59,0.43 6.9,0.43l88.8 0 0 30.61 -96.35 0zm0.21 -74.36l65.53 0 0 -12.72c0,-4.31 -0.11,-6.61 -0.32,-6.9 -0.22,-0.29 -2.55,-0.43 -7.01,-0.43l-50.87 0c-4.31,0 -6.61,0.15 -6.9,0.43 -0.29,0.29 -0.43,2.59 -0.43,6.9l0 12.72z"/>
  <path id="7" class="fil0" d="M2853.08 4207.61l0 -125.02 96.35 0c8.48,0 15.66,3.02 21.56,9.06 5.89,6.04 8.83,13.15 8.83,21.34l0 94.62 -30.61 0 0 -87.08c0,-4.31 -0.11,-6.61 -0.32,-6.9 -0.22,-0.29 -2.48,-0.43 -6.79,-0.43l-51.08 0c-4.31,0 -6.61,0.15 -6.9,0.43 -0.29,0.29 -0.43,2.59 -0.43,6.9l0 87.08 -30.61 0z"/>
  <path id="8" class="fil0" d="M3020.78 4253.09l0 -30.82 68.76 0c4.46,0 6.79,-0.11 7.01,-0.32 0.21,-0.22 0.32,-2.48 0.32,-6.79l0 -7.54 -65.74 0c-8.33,0 -15.52,-3.02 -21.56,-9.05 -6.04,-6.04 -9.06,-13.15 -9.06,-21.34l0 -94.19 30.61 0 0 86.65c0,4.31 0.14,6.61 0.43,6.9 0.29,0.29 2.59,0.43 6.9,0.43l51.08 0c4.46,0 6.79,-0.15 7.01,-0.43 0.21,-0.29 0.32,-2.59 0.32,-6.9l0 -86.65 30.61 0 0 139.67c0,8.48 -2.98,15.67 -8.94,21.56 -5.96,5.89 -13.11,8.84 -21.44,8.84l-76.3 0z"/>
  <path id="9" class="fil0" d="M3150.32 4207.61l0 -125.02 30.61 0 0 125.02 -30.61 0zm0 -135.15l0 -30.82 30.61 0 0 30.82 -30.61 0z"/>
  <path id="10" class="fil0" d="M3235.89 4207.61c-8.19,0 -15.3,-3.02 -21.34,-9.05 -6.04,-6.04 -9.05,-13.15 -9.05,-21.34l0 -5.61 30.61 0 0 1.08c0,2.3 0.15,3.59 0.43,3.88 0.29,0.29 1.58,0.43 3.88,0.43l57.12 0c2.3,0 3.56,-0.15 3.77,-0.43 0.22,-0.29 0.33,-1.58 0.33,-3.88l0 -7.98c0,-2.3 -0.11,-3.59 -0.33,-3.88 -0.21,-0.29 -1.47,-0.43 -3.77,-0.43l-61.65 0c-8.19,0 -15.3,-2.98 -21.34,-8.94 -6.04,-5.96 -9.05,-13.11 -9.05,-21.44l0 -17.03c0,-8.19 3.02,-15.3 9.05,-21.34 6.04,-6.04 13.15,-9.06 21.34,-9.06l65.96 0c8.48,0 15.7,3.02 21.66,9.06 5.96,6.04 8.94,13.15 8.94,21.34l0 5.6 -30.82 0 0 -1.08c0,-2.3 -0.11,-3.59 -0.33,-3.88 -0.21,-0.29 -1.47,-0.43 -3.77,-0.43l-57.12 0c-2.3,0 -3.59,0.15 -3.88,0.43 -0.29,0.29 -0.43,1.58 -0.43,3.88l0 7.98c0,2.3 0.15,3.59 0.43,3.88 0.29,0.29 1.58,0.43 3.88,0.43l61.43 0c8.48,0 15.7,2.98 21.66,8.94 5.96,5.96 8.94,13.11 8.94,21.44l0 17.03c0,8.19 -2.98,15.3 -8.94,21.34 -5.96,6.04 -13.18,9.05 -21.66,9.05l-65.96 0z"/>
  <path id="11" class="fil0" d="M3354.22 4207.61l0 -125.02 30.61 0 0 125.02 -30.61 0zm0 -135.15l0 -30.82 30.61 0 0 30.82 -30.61 0z"/>
  <path id="12" class="fil0" d="M3407.03 4207.61l0 -165.97 30.61 0 0 40.95 65.74 0c8.33,0 15.48,3.02 21.44,9.06 5.96,6.04 8.94,13.15 8.94,21.34l0 94.62 -30.61 0 0 -87.08c0,-4.31 -0.11,-6.61 -0.32,-6.9 -0.22,-0.29 -2.48,-0.43 -6.79,-0.43l-51.08 0c-4.31,0 -6.61,0.15 -6.9,0.43 -0.29,0.29 -0.43,2.59 -0.43,6.9l0 87.08 -30.61 0z"/>
  <path id="13" class="fil0" d="M3581.19 4207.61c-8.33,0 -15.48,-3.02 -21.44,-9.05 -5.96,-6.04 -8.94,-13.15 -8.94,-21.34l0 -47.42 96.13 0 0 -9.27c0,-4.31 -0.11,-6.61 -0.33,-6.9 -0.21,-0.29 -2.55,-0.43 -7,-0.43l-88.8 0 0 -30.61 96.35 0c8.48,0 15.67,3.02 21.56,9.06 5.89,6.04 8.84,13.15 8.84,21.34l0 94.62 -96.35 0zm7.55 -30.61l58.2 0 0 -20.05 -65.53 0 0 12.72c0,4.31 0.15,6.61 0.43,6.9 0.29,0.29 2.59,0.43 6.9,0.43z"/>
  <path id="14" class="fil0" d="M3698.66 4207.61l0 -125.02 96.35 0c8.48,0 15.66,3.02 21.56,9.06 5.89,6.04 8.83,13.15 8.83,21.34l0 94.62 -30.61 0 0 -87.08c0,-4.31 -0.11,-6.61 -0.32,-6.9 -0.22,-0.29 -2.48,-0.43 -6.79,-0.43l-51.08 0c-4.31,0 -6.61,0.15 -6.9,0.43 -0.29,0.29 -0.43,2.59 -0.43,6.9l0 87.08 -30.61 0z"/>
  <g id="_1404944533520">
   <path class="fil0" d="M2096.48 5043.78c-9.5,0 -17.62,-3.37 -24.37,-10.13 -6.75,-6.75 -10.13,-14.87 -10.13,-24.37l0 -11.75 32.75 0 0 4.75c0,4.67 0.29,7.29 0.87,7.87 0.58,0.59 3.21,0.88 7.87,0.88l95.25 0c4.67,0 7.29,-0.29 7.88,-0.88 0.58,-0.58 0.87,-3.21 0.87,-7.87l0 -25c0,-4.67 -0.29,-7.29 -0.87,-7.87 -0.59,-0.58 -3.21,-0.87 -7.88,-0.87l-136.75 0 0 -104.75 178.25 0 0 32.75 -136.75 0c-4.67,0 -7.29,0.29 -7.87,0.87 -0.58,0.59 -0.87,3.21 -0.87,7.88l0 21.5c0,4.67 0.29,7.3 0.87,7.88 0.58,0.58 3.21,0.87 7.87,0.87l102.25 0c9.5,0 17.63,3.37 24.38,10.13 6.75,6.75 10.12,14.87 10.12,24.37l0 39.25c0,9.5 -3.37,17.63 -10.12,24.37 -6.75,6.75 -14.88,10.13 -24.38,10.13l-109.25 0z"/>
   <path class="fil1" d="M2077.13 5096.8l0 96.83c0,13.22 -3.66,23.5 -10.98,30.82 -7.32,7.33 -17.47,10.99 -30.43,10.99 -14,0 -25.08,-4.02 -33.25,-12.06 -8.17,-8.04 -12.25,-19.51 -12.25,-34.42l27.03 0c0,7 1.46,12.38 4.37,16.14 2.92,3.76 7.23,5.64 12.93,5.64 5.19,0 9.01,-1.52 11.47,-4.57 2.46,-3.05 3.7,-7.23 3.7,-12.54l0 -96.83 27.41 0z"/>
   <path id="1" class="fil1" d="M2204.09 5126.36l0 107.72 -27.41 0 0 -21.78c-2.85,7.26 -7.55,12.93 -14.1,17.01 -6.55,4.08 -14.09,6.13 -22.65,6.13 -12.44,0 -22.36,-4.08 -29.75,-12.25 -7.39,-8.17 -11.08,-19.57 -11.08,-34.22l0 -62.61 27.22 0 0 59.5c0,8.56 2.2,15.2 6.61,19.93 4.41,4.73 10.37,7.1 17.89,7.1 7.91,0 14.19,-2.53 18.86,-7.58 4.67,-5.06 7,-12.31 7,-21.78l0 -57.17 27.41 0z"/>
   <polygon id="2" class="fil1" points="2256.4,5090.19 2256.4,5234.08 2228.98,5234.08 2228.98,5090.19 "/>
   <path id="3" class="fil1" d="M2278.18 5095.44c0,-4.41 1.56,-8 4.67,-10.79 3.11,-2.79 7.19,-4.18 12.25,-4.18 5.06,0 9.14,1.39 12.25,4.18 3.11,2.79 4.67,6.39 4.67,10.79 0,4.28 -1.56,7.81 -4.67,10.6 -3.11,2.79 -7.2,4.18 -12.25,4.18 -5.06,0 -9.14,-1.39 -12.25,-4.18 -3.11,-2.79 -4.67,-6.32 -4.67,-10.6zm30.53 30.92l0 107.72 -27.42 0 0 -107.72 27.42 0z"/>
  </g>
  <g id="_1404944530096">
   <path class="fil0" d="M2143.2 6436.33c-9.5,0 -17.62,-3.37 -24.37,-10.13 -6.75,-6.75 -10.13,-14.87 -10.13,-24.37l0 -39.25c0,-3 0.5,-6.04 1.5,-9.13 1,-3.08 2.25,-6.04 3.75,-8.87 -1.5,-2.83 -2.75,-5.79 -3.75,-8.87 -1,-3.09 -1.5,-6.21 -1.5,-9.38l0 -35.5c0,-9.67 3.38,-17.83 10.13,-24.5 6.75,-6.67 14.87,-10 24.37,-10l109.25 0c8.33,0 15.79,2.75 22.38,8.25 6.58,5.5 10.62,12.17 12.12,20l0 41.75c0,3 -0.46,6.09 -1.37,9.25 -0.92,3.17 -2.21,6.17 -3.87,9 1.83,2.83 3.17,5.75 4,8.75 0.83,3 1.25,6.08 1.25,9.25l0 39.25c0,9.5 -3.37,17.63 -10.12,24.37 -6.75,6.75 -14.88,10.13 -24.38,10.13l-109.25 0zm7 -32.75l95.25 0c4.67,0 7.29,-0.29 7.88,-0.88 0.58,-0.58 0.87,-3.21 0.87,-7.87l0 -25c0,-4.67 -0.29,-7.29 -0.87,-7.87 -0.59,-0.58 -3.21,-0.87 -7.88,-0.87l-95.25 0c-4.67,0 -7.29,0.29 -7.87,0.87 -0.58,0.58 -0.87,3.21 -0.87,7.87l0 25c0,4.67 0.29,7.29 0.87,7.87 0.58,0.59 3.21,0.88 7.87,0.88zm0 -72.75l95.25 0c4.67,0 7.29,-0.33 7.88,-1 0.58,-0.67 0.87,-3.25 0.87,-7.75l0 -24c0,-4.67 -0.29,-7.29 -0.87,-7.87 -0.59,-0.58 -3.21,-0.87 -7.88,-0.87l-95.25 0c-4.67,0 -7.29,0.29 -7.87,0.87 -0.58,0.58 -0.87,3.21 -0.87,7.87l0 24c0,4.5 0.29,7.08 0.87,7.75 0.58,0.67 3.21,1 7.87,1z"/>
   <path class="fil1" d="M2123.84 6489.35l0 96.83c0,13.22 -3.66,23.5 -10.98,30.82 -7.32,7.33 -17.47,10.99 -30.43,10.99 -14,0 -25.08,-4.02 -33.25,-12.06 -8.17,-8.04 -12.25,-19.51 -12.25,-34.42l27.03 0c0,7 1.46,12.38 4.37,16.14 2.92,3.76 7.23,5.64 12.93,5.64 5.19,0 9.01,-1.52 11.47,-4.57 2.46,-3.05 3.7,-7.23 3.7,-12.54l0 -96.83 27.41 0z"/>
   <path id="1" class="fil1" d="M2250.81 6518.91l0 107.72 -27.41 0 0 -21.78c-2.85,7.26 -7.55,12.93 -14.1,17.01 -6.55,4.08 -14.09,6.13 -22.65,6.13 -12.44,0 -22.36,-4.08 -29.75,-12.25 -7.39,-8.17 -11.08,-19.57 -11.08,-34.22l0 -62.61 27.22 0 0 59.5c0,8.56 2.2,15.2 6.61,19.93 4.41,4.73 10.37,7.1 17.89,7.1 7.91,0 14.19,-2.53 18.86,-7.58 4.67,-5.06 7,-12.31 7,-21.78l0 -57.17 27.41 0z"/>
   <polygon id="2" class="fil1" points="2303.12,6482.74 2303.12,6626.63 2275.7,6626.63 2275.7,6482.74 "/>
   <path id="3" class="fil1" d="M2324.89 6487.99c0,-4.41 1.56,-8 4.67,-10.79 3.11,-2.79 7.19,-4.18 12.25,-4.18 5.06,0 9.14,1.39 12.25,4.18 3.11,2.79 4.67,6.39 4.67,10.79 0,4.28 -1.56,7.81 -4.67,10.6 -3.11,2.79 -7.2,4.18 -12.25,4.18 -5.06,0 -9.14,-1.39 -12.25,-4.18 -3.11,-2.79 -4.67,-6.32 -4.67,-10.6zm30.53 30.92l0 107.72 -27.42 0 0 -107.72 27.42 0z"/>
  </g>
  <path class="fil0" d="M304.94 5525.95l0 -154.98 124.15 0c8.48,0 15.77,3.06 21.88,9.16 6.11,6.11 9.16,13.4 9.16,21.88l0 40.95c0,8.33 -3.05,15.56 -9.16,21.66 -6.11,6.11 -13.4,9.16 -21.88,9.16l-93.11 0.22 0 51.94 -31.04 0zm38.15 -83.2l78.46 0c4.31,0 6.61,-0.14 6.89,-0.43 0.29,-0.29 0.43,-2.59 0.43,-6.9l0 -26.3c0,-4.31 -0.15,-6.57 -0.43,-6.79 -0.29,-0.22 -2.58,-0.32 -6.89,-0.32l-78.46 0c-4.31,0 -6.57,0.11 -6.79,0.32 -0.22,0.22 -0.32,2.48 -0.32,6.79l0 26.3c0,4.31 0.11,6.61 0.32,6.9 0.21,0.29 2.48,0.43 6.79,0.43z"/>
  <path id="1" class="fil0" d="M504.75 5525.95c-8.19,0 -15.3,-3.02 -21.34,-9.05 -6.04,-6.04 -9.06,-13.15 -9.06,-21.34l0 -64.23c0,-8.19 3.02,-15.3 9.06,-21.34 6.04,-6.04 13.15,-9.06 21.34,-9.06l65.96 0c8.48,0 15.66,3.02 21.55,9.06 5.89,6.04 8.84,13.15 8.84,21.34l0 47.42 -96.13 0 0 9.27c0,4.31 0.15,6.61 0.43,6.9 0.29,0.29 2.59,0.43 6.9,0.43l88.8 0 0 30.61 -96.35 0zm0.21 -74.36l65.53 0 0 -12.72c0,-4.31 -0.11,-6.61 -0.32,-6.9 -0.22,-0.29 -2.55,-0.43 -7.01,-0.43l-50.87 0c-4.31,0 -6.61,0.15 -6.9,0.43 -0.29,0.29 -0.43,2.59 -0.43,6.9l0 12.72z"/>
  <path id="2" class="fil0" d="M624.16 5525.95l0 -125.02 96.35 0c8.48,0 15.66,3.02 21.56,9.06 5.89,6.04 8.83,13.15 8.83,21.34l0 94.62 -30.61 0 0 -87.08c0,-4.31 -0.11,-6.61 -0.32,-6.9 -0.22,-0.29 -2.48,-0.43 -6.79,-0.43l-51.08 0c-4.31,0 -6.61,0.15 -6.9,0.43 -0.29,0.29 -0.43,2.59 -0.43,6.9l0 87.08 -30.61 0z"/>
  <path id="3" class="fil0" d="M789.92 5575.31l0 -30.82 68.76 0c4.45,0 6.79,-0.14 7,-0.43 0.22,-0.29 0.32,-2.59 0.32,-6.9l0 -11.21 -65.74 0c-8.33,0 -15.52,-3.02 -21.56,-9.05 -6.04,-6.04 -9.05,-13.15 -9.05,-21.34l0 -64.23c0,-8.19 3.02,-15.3 9.05,-21.34 6.04,-6.04 13.22,-9.06 21.56,-9.06l65.96 0c8.33,0 15.48,3.02 21.44,9.06 5.96,6.04 8.94,13.15 8.94,21.34l0 113.59c0,8.33 -2.98,15.48 -8.94,21.44 -5.96,5.96 -13.11,8.94 -21.44,8.94l-76.3 0zm17.67 -79.96l51.09 0c4.45,0 6.79,-0.15 7,-0.43 0.22,-0.29 0.32,-2.59 0.32,-6.9l0 -49.14c0,-4.31 -0.11,-6.61 -0.32,-6.9 -0.22,-0.29 -2.55,-0.43 -7,-0.43l-51.09 0c-4.31,0 -6.61,0.15 -6.9,0.43 -0.29,0.29 -0.43,2.59 -0.43,6.9l0 49.14c0,4.31 0.14,6.61 0.43,6.9 0.29,0.29 2.59,0.43 6.9,0.43z"/>
  <path id="4" class="fil0" d="M944.46 5525.95c-8.33,0 -15.48,-3.02 -21.44,-9.05 -5.96,-6.04 -8.94,-13.15 -8.94,-21.34l0 -94.63 30.61 0 0 87.08c0,4.31 0.14,6.61 0.43,6.9 0.29,0.29 2.59,0.43 6.9,0.43l50.87 0c4.45,0 6.79,-0.15 7,-0.43 0.22,-0.29 0.32,-2.59 0.32,-6.9l0 -87.08 30.61 0 0 94.63c0,8.19 -2.94,15.3 -8.83,21.34 -5.89,6.04 -13.08,9.05 -21.56,9.05l-65.96 0z"/>
  <path id="5" class="fil0" d="M1058.48 5525.95l0 -125.02 152.82 0c8.33,0 15.48,3.02 21.44,9.06 5.96,6.04 8.94,13.15 8.94,21.34l0 94.62 -30.39 0 0 -87.08c0,-4.31 -0.15,-6.61 -0.43,-6.9 -0.29,-0.29 -2.59,-0.43 -6.9,-0.43l-31.04 0c-4.31,0 -6.61,0.15 -6.9,0.43 -0.29,0.29 -0.43,2.59 -0.43,6.9l0 87.08 -30.82 0 0 -87.08c0,-4.31 -0.14,-6.61 -0.43,-6.9 -0.29,-0.29 -2.59,-0.43 -6.9,-0.43l-31.04 0c-4.31,0 -6.61,0.15 -6.9,0.43 -0.29,0.29 -0.43,2.59 -0.43,6.9l0 87.08 -30.61 0z"/>
  <path id="6" class="fil0" d="M1299.46 5525.95c-8.33,0 -15.48,-3.02 -21.44,-9.05 -5.96,-6.04 -8.94,-13.15 -8.94,-21.34l0 -94.63 30.61 0 0 87.08c0,4.31 0.14,6.61 0.43,6.9 0.29,0.29 2.59,0.43 6.9,0.43l50.87 0c4.45,0 6.79,-0.15 7,-0.43 0.22,-0.29 0.32,-2.59 0.32,-6.9l0 -87.08 30.61 0 0 94.63c0,8.19 -2.94,15.3 -8.83,21.34 -5.89,6.04 -13.08,9.05 -21.56,9.05l-65.96 0z"/>
  <path id="7" class="fil0" d="M1413.48 5525.95l0 -125.02 152.82 0c8.33,0 15.48,3.02 21.44,9.06 5.96,6.04 8.94,13.15 8.94,21.34l0 94.62 -30.39 0 0 -87.08c0,-4.31 -0.15,-6.61 -0.43,-6.9 -0.29,-0.29 -2.59,-0.43 -6.9,-0.43l-31.04 0c-4.31,0 -6.61,0.15 -6.9,0.43 -0.29,0.29 -0.43,2.59 -0.43,6.9l0 87.08 -30.82 0 0 -87.08c0,-4.31 -0.14,-6.61 -0.43,-6.9 -0.29,-0.29 -2.59,-0.43 -6.9,-0.43l-31.04 0c-4.31,0 -6.61,0.15 -6.9,0.43 -0.29,0.29 -0.43,2.59 -0.43,6.9l0 87.08 -30.61 0z"/>
  <path id="8" class="fil0" d="M1648.64 5525.95c-8.33,0 -15.48,-3.02 -21.44,-9.05 -5.96,-6.04 -8.94,-13.15 -8.94,-21.34l0 -47.42 96.13 0 0 -9.27c0,-4.31 -0.11,-6.61 -0.33,-6.9 -0.21,-0.29 -2.55,-0.43 -7,-0.43l-88.8 0 0 -30.61 96.35 0c8.48,0 15.67,3.02 21.56,9.06 5.89,6.04 8.84,13.15 8.84,21.34l0 94.62 -96.35 0zm7.55 -30.61l58.2 0 0 -20.05 -65.53 0 0 12.72c0,4.31 0.15,6.61 0.43,6.9 0.29,0.29 2.59,0.43 6.9,0.43z"/>
  <path id="9" class="fil0" d="M1766.11 5525.95l0 -125.02 96.35 0c8.48,0 15.66,3.02 21.56,9.06 5.89,6.04 8.83,13.15 8.83,21.34l0 94.62 -30.61 0 0 -87.08c0,-4.31 -0.11,-6.61 -0.32,-6.9 -0.22,-0.29 -2.48,-0.43 -6.79,-0.43l-51.08 0c-4.31,0 -6.61,0.15 -6.9,0.43 -0.29,0.29 -0.43,2.59 -0.43,6.9l0 87.08 -30.61 0z"/>
  <polygon id="10" class="fil0" points="1222.51,5796.24 1222.51,5672.09 1160.44,5672.09 1160.44,5641.05 1315.63,5641.05 1315.63,5672.09 1253.55,5672.09 1253.55,5796.24 "/>
  <path id="11" class="fil0" d="M1361.32 5796.24c-8.33,0 -15.48,-3.02 -21.44,-9.05 -5.96,-6.04 -8.94,-13.15 -8.94,-21.34l0 -47.42 96.13 0 0 -9.27c0,-4.31 -0.11,-6.61 -0.33,-6.9 -0.21,-0.29 -2.55,-0.43 -7,-0.43l-88.8 0 0 -30.61 96.35 0c8.48,0 15.67,3.02 21.56,9.06 5.89,6.04 8.84,13.15 8.84,21.34l0 94.62 -96.35 0zm7.55 -30.61l58.2 0 0 -20.05 -65.53 0 0 12.72c0,4.31 0.15,6.61 0.43,6.9 0.29,0.29 2.59,0.43 6.9,0.43z"/>
  <path id="12" class="fil0" d="M1479.22 5796.24l0 -165.97 30.61 0 0 40.95 65.74 0c8.33,0 15.48,3.02 21.44,9.06 5.96,6.04 8.94,13.15 8.94,21.34l0 94.62 -30.61 0 0 -87.08c0,-4.31 -0.11,-6.61 -0.32,-6.9 -0.22,-0.29 -2.48,-0.43 -6.79,-0.43l-51.08 0c-4.31,0 -6.61,0.15 -6.9,0.43 -0.29,0.29 -0.43,2.59 -0.43,6.9l0 87.08 -30.61 0z"/>
  <path id="13" class="fil0" d="M1653.38 5796.24c-8.33,0 -15.48,-3.02 -21.44,-9.05 -5.96,-6.04 -8.94,-13.15 -8.94,-21.34l0 -47.42 96.13 0 0 -9.27c0,-4.31 -0.11,-6.61 -0.33,-6.9 -0.21,-0.29 -2.55,-0.43 -7,-0.43l-88.8 0 0 -30.61 96.35 0c8.48,0 15.67,3.02 21.56,9.06 5.89,6.04 8.84,13.15 8.84,21.34l0 94.62 -96.35 0zm7.55 -30.61l58.2 0 0 -20.05 -65.53 0 0 12.72c0,4.31 0.15,6.61 0.43,6.9 0.29,0.29 2.59,0.43 6.9,0.43z"/>
  <path id="14" class="fil0" d="M1773.01 5845.81l0 -174.59 96.35 0c8.48,0 15.66,3.02 21.56,9.06 5.89,6.04 8.83,13.15 8.83,21.34l0 64.23c0,8.19 -2.94,15.3 -8.83,21.34 -5.89,6.04 -13.08,9.05 -21.56,9.05l-65.74 0 0 49.57 -30.61 0zm37.94 -80.18l51.08 0c4.31,0 6.57,-0.15 6.79,-0.43 0.22,-0.29 0.32,-2.59 0.32,-6.9l0 -49.14c0,-4.31 -0.11,-6.61 -0.32,-6.9 -0.22,-0.29 -2.48,-0.43 -6.79,-0.43l-51.08 0c-4.31,0 -6.61,0.15 -6.9,0.43 -0.29,0.29 -0.43,2.59 -0.43,6.9l0 49.14c0,4.31 0.14,6.61 0.43,6.9 0.29,0.29 2.59,0.43 6.9,0.43z"/>
  <path id="15" class="fil0" d="M601.31 6066.53l0 -154.98 124.15 0c8.48,0 15.77,3.06 21.88,9.16 6.11,6.11 9.16,13.4 9.16,21.88l0 40.95c0,8.33 -3.05,15.56 -9.16,21.66 -6.11,6.11 -13.4,9.16 -21.88,9.16l-93.11 0.22 0 51.94 -31.04 0zm38.15 -83.2l78.46 0c4.31,0 6.61,-0.14 6.89,-0.43 0.29,-0.29 0.43,-2.59 0.43,-6.9l0 -26.3c0,-4.31 -0.15,-6.57 -0.43,-6.79 -0.29,-0.22 -2.58,-0.32 -6.89,-0.32l-78.46 0c-4.31,0 -6.57,0.11 -6.79,0.32 -0.22,0.22 -0.32,2.48 -0.32,6.79l0 26.3c0,4.31 0.11,6.61 0.32,6.9 0.21,0.29 2.48,0.43 6.79,0.43z"/>
  <path id="16" class="fil0" d="M801.13 6066.53c-8.19,0 -15.3,-3.02 -21.34,-9.05 -6.04,-6.04 -9.06,-13.15 -9.06,-21.34l0 -64.23c0,-8.19 3.02,-15.3 9.06,-21.34 6.04,-6.04 13.15,-9.06 21.34,-9.06l65.96 0c8.48,0 15.66,3.02 21.55,9.06 5.89,6.04 8.84,13.15 8.84,21.34l0 47.42 -96.13 0 0 9.27c0,4.31 0.15,6.61 0.43,6.9 0.29,0.29 2.59,0.43 6.9,0.43l88.8 0 0 30.61 -96.35 0zm0.21 -74.36l65.53 0 0 -12.72c0,-4.31 -0.11,-6.61 -0.32,-6.9 -0.22,-0.29 -2.55,-0.43 -7.01,-0.43l-50.87 0c-4.31,0 -6.61,0.15 -6.9,0.43 -0.29,0.29 -0.43,2.59 -0.43,6.9l0 12.72z"/>
  <path id="17" class="fil0" d="M920.54 6066.53l0 -125.02 96.35 0c8.48,0 15.66,3.02 21.56,9.06 5.89,6.04 8.83,13.15 8.83,21.34l0 94.62 -30.61 0 0 -87.08c0,-4.31 -0.11,-6.61 -0.32,-6.9 -0.22,-0.29 -2.48,-0.43 -6.79,-0.43l-51.08 0c-4.31,0 -6.61,0.15 -6.9,0.43 -0.29,0.29 -0.43,2.59 -0.43,6.9l0 87.08 -30.61 0z"/>
  <path id="18" class="fil0" d="M1088.23 6112.01l0 -30.82 68.76 0c4.46,0 6.79,-0.11 7.01,-0.32 0.21,-0.22 0.32,-2.48 0.32,-6.79l0 -7.54 -65.74 0c-8.33,0 -15.52,-3.02 -21.56,-9.05 -6.04,-6.04 -9.06,-13.15 -9.06,-21.34l0 -94.19 30.61 0 0 86.65c0,4.31 0.14,6.61 0.43,6.9 0.29,0.29 2.59,0.43 6.9,0.43l51.08 0c4.46,0 6.79,-0.15 7.01,-0.43 0.21,-0.29 0.32,-2.59 0.32,-6.9l0 -86.65 30.61 0 0 139.67c0,8.48 -2.98,15.67 -8.94,21.56 -5.96,5.89 -13.11,8.84 -21.44,8.84l-76.3 0z"/>
  <path id="19" class="fil0" d="M1217.77 6066.53l0 -125.02 30.61 0 0 125.02 -30.61 0zm0 -135.15l0 -30.82 30.61 0 0 30.82 -30.61 0z"/>
  <path id="20" class="fil0" d="M1303.34 6066.53c-8.19,0 -15.3,-3.02 -21.34,-9.05 -6.04,-6.04 -9.05,-13.15 -9.05,-21.34l0 -5.61 30.61 0 0 1.08c0,2.3 0.15,3.59 0.43,3.88 0.29,0.29 1.58,0.43 3.88,0.43l57.12 0c2.3,0 3.56,-0.15 3.77,-0.43 0.22,-0.29 0.33,-1.58 0.33,-3.88l0 -7.98c0,-2.3 -0.11,-3.59 -0.33,-3.88 -0.21,-0.29 -1.47,-0.43 -3.77,-0.43l-61.65 0c-8.19,0 -15.3,-2.98 -21.34,-8.94 -6.04,-5.96 -9.05,-13.11 -9.05,-21.44l0 -17.03c0,-8.19 3.02,-15.3 9.05,-21.34 6.04,-6.04 13.15,-9.06 21.34,-9.06l65.96 0c8.48,0 15.7,3.02 21.66,9.06 5.96,6.04 8.94,13.15 8.94,21.34l0 5.6 -30.82 0 0 -1.08c0,-2.3 -0.11,-3.59 -0.33,-3.88 -0.21,-0.29 -1.47,-0.43 -3.77,-0.43l-57.12 0c-2.3,0 -3.59,0.15 -3.88,0.43 -0.29,0.29 -0.43,1.58 -0.43,3.88l0 7.98c0,2.3 0.15,3.59 0.43,3.88 0.29,0.29 1.58,0.43 3.88,0.43l61.43 0c8.48,0 15.7,2.98 21.66,8.94 5.96,5.96 8.94,13.11 8.94,21.44l0 17.03c0,8.19 -2.98,15.3 -8.94,21.34 -5.96,6.04 -13.18,9.05 -21.66,9.05l-65.96 0z"/>
  <path id="21" class="fil0" d="M1421.67 6066.53l0 -125.02 30.61 0 0 125.02 -30.61 0zm0 -135.15l0 -30.82 30.61 0 0 30.82 -30.61 0z"/>
  <path id="22" class="fil0" d="M1474.48 6066.53l0 -165.97 30.61 0 0 40.95 65.74 0c8.33,0 15.48,3.02 21.44,9.06 5.96,6.04 8.94,13.15 8.94,21.34l0 94.62 -30.61 0 0 -87.08c0,-4.31 -0.11,-6.61 -0.32,-6.9 -0.22,-0.29 -2.48,-0.43 -6.79,-0.43l-51.08 0c-4.31,0 -6.61,0.15 -6.9,0.43 -0.29,0.29 -0.43,2.59 -0.43,6.9l0 87.08 -30.61 0z"/>
  <path id="23" class="fil0" d="M1648.64 6066.53c-8.33,0 -15.48,-3.02 -21.44,-9.05 -5.96,-6.04 -8.94,-13.15 -8.94,-21.34l0 -47.42 96.13 0 0 -9.27c0,-4.31 -0.11,-6.61 -0.33,-6.9 -0.21,-0.29 -2.55,-0.43 -7,-0.43l-88.8 0 0 -30.61 96.35 0c8.48,0 15.67,3.02 21.56,9.06 5.89,6.04 8.84,13.15 8.84,21.34l0 94.62 -96.35 0zm7.55 -30.61l58.2 0 0 -20.05 -65.53 0 0 12.72c0,4.31 0.15,6.61 0.43,6.9 0.29,0.29 2.59,0.43 6.9,0.43z"/>
  <path id="24" class="fil0" d="M1766.11 6066.53l0 -125.02 96.35 0c8.48,0 15.66,3.02 21.56,9.06 5.89,6.04 8.83,13.15 8.83,21.34l0 94.62 -30.61 0 0 -87.08c0,-4.31 -0.11,-6.61 -0.32,-6.9 -0.22,-0.29 -2.48,-0.43 -6.79,-0.43l-51.08 0c-4.31,0 -6.61,0.15 -6.9,0.43 -0.29,0.29 -0.43,2.59 -0.43,6.9l0 87.08 -30.61 0z"/>
  <g id="_1404944528752">
   <polygon class="fil0" points="2063.61,7390.9 2063.61,7258.15 2049.36,7275.65 2006.11,7275.65 2060.36,7210.91 2096.61,7210.91 2096.61,7390.9 "/>
   <polygon id="1" class="fil0" points="2161.36,7390.9 2161.36,7258.15 2147.11,7275.65 2103.86,7275.65 2158.11,7210.91 2194.36,7210.91 2194.36,7390.9 "/>
   <path class="fil1" d="M2077.13 7443.93l0 96.83c0,13.22 -3.66,23.5 -10.98,30.82 -7.32,7.33 -17.47,10.99 -30.43,10.99 -14,0 -25.08,-4.02 -33.25,-12.06 -8.17,-8.04 -12.25,-19.51 -12.25,-34.42l27.03 0c0,7 1.46,12.38 4.37,16.14 2.92,3.76 7.23,5.64 12.93,5.64 5.19,0 9.01,-1.52 11.47,-4.57 2.46,-3.05 3.7,-7.23 3.7,-12.54l0 -96.83 27.41 0z"/>
   <path id="1" class="fil1" d="M2204.09 7473.48l0 107.72 -27.41 0 0 -21.78c-2.85,7.26 -7.55,12.93 -14.1,17.01 -6.55,4.08 -14.09,6.13 -22.65,6.13 -12.44,0 -22.36,-4.08 -29.75,-12.25 -7.39,-8.17 -11.08,-19.57 -11.08,-34.22l0 -62.61 27.22 0 0 59.5c0,8.56 2.2,15.2 6.61,19.93 4.41,4.73 10.37,7.1 17.89,7.1 7.91,0 14.19,-2.53 18.86,-7.58 4.67,-5.06 7,-12.31 7,-21.78l0 -57.17 27.41 0z"/>
   <polygon id="2" class="fil1" points="2256.4,7437.32 2256.4,7581.2 2228.98,7581.2 2228.98,7437.32 "/>
   <path id="3" class="fil1" d="M2278.18 7442.57c0,-4.41 1.56,-8 4.67,-10.79 3.11,-2.79 7.19,-4.18 12.25,-4.18 5.06,0 9.14,1.39 12.25,4.18 3.11,2.79 4.67,6.39 4.67,10.79 0,4.28 -1.56,7.81 -4.67,10.6 -3.11,2.79 -7.2,4.18 -12.25,4.18 -5.06,0 -9.14,-1.39 -12.25,-4.18 -3.11,-2.79 -4.67,-6.32 -4.67,-10.6zm30.53 30.92l0 107.72 -27.42 0 0 -107.72 27.42 0z"/>
  </g>
  <g id="_1404944527216">
   <polygon class="fil0" points="2063.61,8727.71 2063.61,8594.96 2049.36,8612.46 2006.11,8612.46 2060.36,8547.71 2096.61,8547.71 2096.61,8727.71 "/>
   <path id="1" class="fil0" d="M2117.86 8727.71l0 -69c0,-9.5 3.38,-17.62 10.13,-24.37 6.75,-6.75 14.87,-10.13 24.37,-10.13l102.25 0c4.67,0 7.29,-0.29 7.88,-0.87 0.58,-0.58 0.87,-3.21 0.87,-7.87l0 -26.25c0,-4.67 -0.29,-7.29 -0.87,-7.88 -0.59,-0.58 -3.21,-0.87 -7.88,-0.87l-95.25 0c-4.67,0 -7.29,0.29 -7.87,0.87 -0.58,0.59 -0.87,3.21 -0.87,7.88l0 6.5 -32.75 0 0 -13.5c0,-9.67 3.38,-17.83 10.13,-24.5 6.75,-6.67 14.87,-10 24.37,-10l109.25 0c9.5,0 17.63,3.33 24.38,10 6.75,6.67 10.12,14.83 10.12,24.5l0 40.5c0,9.5 -3.37,17.63 -10.12,24.38 -6.75,6.75 -14.88,10.12 -24.38,10.12l-102.25 0c-4.67,0 -7.29,0.29 -7.87,0.88 -0.58,0.58 -0.87,3.2 -0.87,7.87l0 20.25c0,4.67 0.29,7.29 0.87,7.87 0.58,0.59 3.21,0.88 7.87,0.88l136.75 0 0 32.75 -178.25 0z"/>
   <path class="fil1" d="M2077.13 8780.74l0 96.83c0,13.22 -3.66,23.5 -10.98,30.82 -7.32,7.33 -17.47,10.99 -30.43,10.99 -14,0 -25.08,-4.02 -33.25,-12.06 -8.17,-8.04 -12.25,-19.51 -12.25,-34.42l27.03 0c0,7 1.46,12.38 4.37,16.14 2.92,3.76 7.23,5.64 12.93,5.64 5.19,0 9.01,-1.52 11.47,-4.57 2.46,-3.05 3.7,-7.23 3.7,-12.54l0 -96.83 27.41 0z"/>
   <path id="1" class="fil1" d="M2204.09 8810.29l0 107.72 -27.41 0 0 -21.78c-2.85,7.26 -7.55,12.93 -14.1,17.01 -6.55,4.08 -14.09,6.13 -22.65,6.13 -12.44,0 -22.36,-4.08 -29.75,-12.25 -7.39,-8.17 -11.08,-19.57 -11.08,-34.22l0 -62.61 27.22 0 0 59.5c0,8.56 2.2,15.2 6.61,19.93 4.41,4.73 10.37,7.1 17.89,7.1 7.91,0 14.19,-2.53 18.86,-7.58 4.67,-5.06 7,-12.31 7,-21.78l0 -57.17 27.41 0z"/>
   <polygon id="2" class="fil1" points="2256.4,8774.13 2256.4,8918.01 2228.98,8918.01 2228.98,8774.13 "/>
   <path id="3" class="fil1" d="M2278.18 8779.37c0,-4.41 1.56,-8 4.67,-10.79 3.11,-2.79 7.19,-4.18 12.25,-4.18 5.06,0 9.14,1.39 12.25,4.18 3.11,2.79 4.67,6.39 4.67,10.79 0,4.28 -1.56,7.81 -4.67,10.6 -3.11,2.79 -7.2,4.18 -12.25,4.18 -5.06,0 -9.14,-1.39 -12.25,-4.18 -3.11,-2.79 -4.67,-6.32 -4.67,-10.6zm30.53 30.92l0 107.72 -27.42 0 0 -107.72 27.42 0z"/>
  </g>
  <polygon class="fil0" points="2370.26,8167.16 2370.26,8011.96 2513.39,8011.96 2513.39,8043 2401.52,8043 2401.52,8074.04 2491.62,8074.04 2491.62,8105.08 2401.52,8105.08 2401.52,8167.16 "/>
  <path id="1" class="fil0" d="M2524.81 8167.16l0 -125.02 30.61 0 0 125.02 -30.61 0zm0 -135.15l0 -30.82 30.61 0 0 30.82 -30.61 0z"/>
  <path id="2" class="fil0" d="M2580.63 8167.16l0 -125.02 96.35 0c8.48,0 15.66,3.02 21.56,9.06 5.89,6.04 8.83,13.15 8.83,21.34l0 94.62 -30.61 0 0 -87.08c0,-4.31 -0.11,-6.61 -0.32,-6.9 -0.22,-0.29 -2.48,-0.43 -6.79,-0.43l-51.08 0c-4.31,0 -6.61,0.15 -6.9,0.43 -0.29,0.29 -0.43,2.59 -0.43,6.9l0 87.08 -30.61 0z"/>
  <path id="3" class="fil0" d="M2760.61 8167.16c-8.33,0 -15.48,-3.02 -21.44,-9.05 -5.96,-6.04 -8.94,-13.15 -8.94,-21.34l0 -47.42 96.13 0 0 -9.27c0,-4.31 -0.11,-6.61 -0.33,-6.9 -0.21,-0.29 -2.55,-0.43 -7,-0.43l-88.8 0 0 -30.61 96.35 0c8.48,0 15.67,3.02 21.56,9.06 5.89,6.04 8.84,13.15 8.84,21.34l0 94.62 -96.35 0zm7.55 -30.61l58.2 0 0 -20.05 -65.53 0 0 12.72c0,4.31 0.15,6.61 0.43,6.9 0.29,0.29 2.59,0.43 6.9,0.43z"/>
  <path id="4" class="fil0" d="M2905.03 8167.16c-8.19,0 -15.3,-3.02 -21.34,-9.05 -6.04,-6.04 -9.05,-13.15 -9.05,-21.34l0 -135.8 30.82 0 0 128.25c0,4.31 0.11,6.61 0.32,6.9 0.22,0.29 2.55,0.43 7,0.43l18.54 0 0 30.61 -26.3 0z"/>
 </g>
</svg>
